<?xml version="1.0"?>
<svg xmlns="http://www.w3.org/2000/svg" version="1.2" baseProfile="tiny" width="800" height="889" viewBox="0 0 800 889" stroke-linecap="round" stroke-linejoin="round">
<g id="fl_house_districts">
<path id="house-1" d="M 19.978248920484766 19.529899024238087 L 87.97240225531061 20.571141714333148 L 88.53033432274214 97.07465153709524 L 19.258677582646538 95.96391759951901 Z" fill="#E5E7EB" stroke="#374151" stroke-width="0.5"/>
<path id="house-2" d="M 88.51058907605699 20.67772639459989 L 158.06338901631207 19.245338493084066 L 157.06854041700362 97.01273995537251 L 89.5570741868869 97.15869269442017 Z" fill="#E5E7EB" stroke="#374151" stroke-width="0.5"/>
<path id="house-3" d="M 158.79017868463407 19.52714526818735 L 225.7082473788131 20.93615305710965 L 225.6332056574114 96.58405068957053 L 158.07835070209757 95.7183101766458 Z" fill="#E5E7EB" stroke="#374151" stroke-width="0.5"/>
<path id="house-4" d="M 228.19644924217064 20.729708060564164 L 295.297392563181 20.97983249233658 L 295.3498312022517 95.73295581344415 L 227.06873499285334 95.90579658182841 Z" fill="#E5E7EB" stroke="#374151" stroke-width="0.5"/>
<path id="house-5" d="M 711.5984281342159 20.353825369722543 L 779.2655877662216 19.962087742581723 L 779.060138550971 95.26249520569166 L 711.1822564173456 95.33417188127025 Z" fill="#E5E7EB" stroke="#374151" stroke-width="0.5"/>
<path id="house-6" d="M 19.115392386630234 97.56869730999003 L 88.34784233265341 96.97889380302318 L 87.42498762276264 174.0775544755202 L 19.66666904554471 172.4582512290432 Z" fill="#E5E7EB" stroke="#374151" stroke-width="0.5"/>
<path id="house-7" d="M 89.09381966868231 96.8053408840038 L 157.48586324198155 98.04770678479301 L 157.0929064665096 174.12648342577597 L 89.95292564529514 173.91261440336416 Z" fill="#E5E7EB" stroke="#374151" stroke-width="0.5"/>
<path id="house-8" d="M 159.14105714581342 98.07697571094721 L 226.71162504676224 97.89007122279124 L 225.35236370561424 172.62527689920398 L 158.86682503583594 174.11261310932687 Z" fill="#E5E7EB" stroke="#374151" stroke-width="0.5"/>
<path id="house-9" d="M 228.03683495616235 97.26407299821585 L 295.5526548398992 96.48746846601586 L 295.83342587147894 172.6614175303747 L 227.55749853474254 174.1159889311552 Z" fill="#E5E7EB" stroke="#374151" stroke-width="0.5"/>
<path id="house-10" d="M 711.8971005354035 96.32670945569534 L 779.9261431940523 98.12668605812212 L 778.270474475708 173.61726616179732 L 710.30178316271 174.29023166843672 Z" fill="#E5E7EB" stroke="#374151" stroke-width="0.5"/>
<path id="house-11" d="M 19.486323804784053 174.67915787192345 L 87.22161171211914 173.53928092401154 L 88.14940163384463 250.65227300973123 L 20.577534619006542 251.1928753304881 Z" fill="#E5E7EB" stroke="#374151" stroke-width="0.5"/>
<path id="house-12" d="M 88.2087591749113 175.30278744767756 L 157.15773135979535 174.60509885714407 L 156.72728190012919 250.19615786429247 L 90.08709174971004 251.12762441192055 Z" fill="#E5E7EB" stroke="#374151" stroke-width="0.5"/>
<path id="house-13" d="M 158.99786844069865 174.89131387122043 L 225.3448958937381 173.87884664501067 L 226.90623681351317 250.27275871907614 L 159.07282572257418 250.92779691371717 Z" fill="#E5E7EB" stroke="#374151" stroke-width="0.5"/>
<path id="house-14" d="M 227.03602057190977 174.80360933899453 L 296.19154087124963 174.54303246339506 L 294.5141405767437 250.36911585497668 L 226.63977108533172 251.224434554612 Z" fill="#E5E7EB" stroke="#374151" stroke-width="0.5"/>
<path id="house-15" d="M 710.4845732046642 174.98961800685692 L 779.6085306000218 174.70704368739754 L 779.1739468428542 249.8382378289042 L 710.6100548630792 251.421471293482 Z" fill="#E5E7EB" stroke="#374151" stroke-width="0.5"/>
<path id="house-16" d="M 20.382457041576117 251.81029845750504 L 88.45495536609965 252.30688169280126 L 87.26878731535987 326.77001925885355 L 19.986924035414834 327.27170876351477 Z" fill="#E5E7EB" stroke="#374151" stroke-width="0.5"/>
<path id="house-17" d="M 88.79660647996587 252.32674507278952 L 157.98217632093997 252.32353879554591 L 157.48270854129981 328.63461508783223 L 89.46536978557346 327.84599202659484 Z" fill="#E5E7EB" stroke="#374151" stroke-width="0.5"/>
<path id="house-18" d="M 158.68425455201287 251.95913223373014 L 225.571096518842 252.18524299720204 L 227.11105351510992 326.8887534353266 L 157.44203033377758 326.84742358629217 Z" fill="#E5E7EB" stroke="#374151" stroke-width="0.5"/>
<path id="house-19" d="M 226.50591384605227 251.78037946328038 L 294.78229931996265 250.99553006947326 L 295.5863366172742 327.77283001832285 L 227.11527837237708 328.00262718454525 Z" fill="#E5E7EB" stroke="#374151" stroke-width="0.5"/>
<path id="house-20" d="M 710.5589030372931 251.78489222867182 L 778.1985084608904 251.03733251222152 L 779.8129264857291 327.2710140907267 L 711.5799088731378 327.8579304010757 Z" fill="#E5E7EB" stroke="#374151" stroke-width="0.5"/>
<path id="house-21" d="M 296.2921313420886 327.95050546869345 L 364.00575828386536 327.93636445105085 L 363.562377485408 404.25826260322384 L 296.2793864688451 404.22036102528443 Z" fill="#E5E7EB" stroke="#374151" stroke-width="0.5"/>
<path id="house-22" d="M 364.9930763016551 329.3589307336276 L 434.04461797546554 329.3917519179426 L 432.6631730985975 403.9215387091537 L 364.4873704576512 405.42737899241905 Z" fill="#E5E7EB" stroke="#374151" stroke-width="0.5"/>
<path id="house-23" d="M 435.1724861307951 329.61749310477745 L 502.5211941866038 328.0043622371801 L 503.55414204572764 405.891814185949 L 433.69558651193535 404.8958735946569 Z" fill="#E5E7EB" stroke="#374151" stroke-width="0.5"/>
<path id="house-24" d="M 504.5627382169952 328.4315039475482 L 571.574048200209 328.2848957422008 L 571.6908634240395 404.22733776965214 L 502.9963765234037 405.85422554726887 Z" fill="#E5E7EB" stroke="#374151" stroke-width="0.5"/>
<path id="house-25" d="M 572.656296618978 329.36257130651046 L 640.1199380820256 329.08546811604845 L 640.1492054228786 404.020106595573 L 573.5347522906178 404.25809273931225 Z" fill="#E5E7EB" stroke="#374151" stroke-width="0.5"/>
<path id="house-26" d="M 711.630571300714 328.84588418210456 L 778.0078876786487 328.896323446454 L 778.3202511634327 405.31180970532057 L 710.5850828745165 404.98371483333295 Z" fill="#E5E7EB" stroke="#374151" stroke-width="0.5"/>
<path id="house-27" d="M 297.12289459178555 405.66951285793203 L 363.82159483429234 405.5282897090945 L 364.0631470659879 481.6785380008203 L 295.37769376810496 482.2419882330748 Z" fill="#E5E7EB" stroke="#374151" stroke-width="0.5"/>
<path id="house-28" d="M 365.24508065834567 405.1947470809084 L 433.7140748526472 406.4161915973183 L 433.39168200615893 481.2194330933342 L 365.862698698011 482.84000464600996 Z" fill="#E5E7EB" stroke="#374151" stroke-width="0.5"/>
<path id="house-29" d="M 434.34796172002234 404.9328289900298 L 502.00211282728065 406.7505949524646 L 503.28826466363734 481.709333141359 L 434.3206010292995 482.2390291951678 Z" fill="#E5E7EB" stroke="#374151" stroke-width="0.5"/>
<path id="house-30" d="M 503.0029793780496 406.23856490209226 L 572.0294168099347 405.1012946879617 L 572.3124140180205 483.0701695794672 L 504.28052745893854 482.0845572176463 Z" fill="#E5E7EB" stroke="#374151" stroke-width="0.5"/>
<path id="house-31" d="M 573.2494831907312 406.7916972487372 L 640.2044831003813 406.4696942951544 L 640.2811632340399 482.7792989031504 L 572.907071915536 482.5884121188713 Z" fill="#E5E7EB" stroke="#374151" stroke-width="0.5"/>
<path id="house-32" d="M 710.8261988169655 406.5167075786325 L 779.0028980308963 405.565002621461 L 778.3631231764473 483.02353022249525 L 710.0257538509215 481.2413726522508 Z" fill="#E5E7EB" stroke="#374151" stroke-width="0.5"/>
<path id="house-33" d="M 295.9237682358211 482.93257870933763 L 363.7550010345342 482.1027163652599 L 364.2167849762884 558.5535066976777 L 295.9545816165731 560.1583701822013 Z" fill="#E5E7EB" stroke="#374151" stroke-width="0.5"/>
<path id="house-34" d="M 364.58001267576793 482.8707601722306 L 433.7606091712481 482.7799446559564 L 434.05642847848935 559.0914583288812 L 365.41761175206375 558.3200889050928 Z" fill="#E5E7EB" stroke="#374151" stroke-width="0.5"/>
<path id="house-35" d="M 435.52258678309846 482.3599066271736 L 502.41574341839384 483.2943947843707 L 502.9153427836698 558.3601330014211 L 434.6253937047816 559.6087041509462 Z" fill="#E5E7EB" stroke="#374151" stroke-width="0.5"/>
<path id="house-36" d="M 502.66358916266813 483.0357292123742 L 571.2280619482201 482.86815255194216 L 570.9068992420422 559.0356011795126 L 503.46808330045707 559.6989025665782 Z" fill="#E5E7EB" stroke="#374151" stroke-width="0.5"/>
<path id="house-37" d="M 572.3904124357023 482.2915931576449 L 640.158342522267 483.4614043183879 L 640.4855473259083 559.442073470865 L 573.5823195189497 559.9179701223554 Z" fill="#E5E7EB" stroke="#374151" stroke-width="0.5"/>
<path id="house-38" d="M 709.9192700102637 483.02077126685737 L 779.7309676817108 483.2453123539965 L 779.4146492437003 559.4497506094584 L 710.6577720934004 560.2658451326722 Z" fill="#E5E7EB" stroke="#374151" stroke-width="0.5"/>
<path id="house-39" d="M 296.74884927820455 560.8743616590235 L 363.6218331405899 560.5194121294138 L 363.9975289413094 636.752429080802 L 296.64889305410685 636.6499234261746 Z" fill="#E5E7EB" stroke="#374151" stroke-width="0.5"/>
<path id="house-40" d="M 364.78933999763234 559.8784098826791 L 433.5529630391079 559.7243116013806 L 432.7552878432168 636.6663864939482 L 366.18789367149543 636.4127676615946 Z" fill="#E5E7EB" stroke="#374151" stroke-width="0.5"/>
<path id="house-41" d="M 434.5248098454256 560.2819308322755 L 502.30597048010776 560.3252843407979 L 502.4674261259592 637.0428309375833 L 433.84167664062306 636.373315912383 Z" fill="#E5E7EB" stroke="#374151" stroke-width="0.5"/>
<path id="house-42" d="M 503.74868688890757 559.7609724670556 L 572.6651344753917 560.6324282882473 L 571.2716412510733 637.41928097821 L 503.4003368418019 636.0961834434755 Z" fill="#E5E7EB" stroke="#374151" stroke-width="0.5"/>
<path id="house-43" d="M 572.5490217285214 560.2089120156307 L 640.3911475217847 560.0202838112153 L 641.4588456254343 636.9169507101882 L 573.145145599759 636.6915200665181 Z" fill="#E5E7EB" stroke="#374151" stroke-width="0.5"/>
<path id="house-44" d="M 711.4023340260181 560.0572045709858 L 778.0310473076039 559.3341962020656 L 778.7546785816018 637.0984112086074 L 711.2828168273487 635.5998228197882 Z" fill="#E5E7EB" stroke="#374151" stroke-width="0.5"/>
<path id="house-45" d="M 365.63244485575484 637.9381857022494 L 432.7617472103796 636.4695135290644 L 434.2872631431174 713.5011413668234 L 365.6863188737639 714.037265729095 Z" fill="#E5E7EB" stroke="#374151" stroke-width="0.5"/>
<path id="house-46" d="M 435.2681062529498 636.5791669360518 L 502.0262976717508 637.6733089569573 L 503.2211711284123 714.4560926648307 L 434.54968781888743 713.5597190055771 Z" fill="#E5E7EB" stroke="#374151" stroke-width="0.5"/>
<path id="house-47" d="M 502.68555986564445 638.026213775175 L 570.8835634627449 637.0746360755542 L 572.5996426620467 713.8594593481238 L 504.38753536217274 712.7637154986446 Z" fill="#E5E7EB" stroke="#374151" stroke-width="0.5"/>
<path id="house-48" d="M 711.6998349952222 637.5426407602541 L 779.8401163872095 636.774077677737 L 778.2100476860514 714.5817602487853 L 710.7987950340993 713.7750143157283 Z" fill="#E5E7EB" stroke="#374151" stroke-width="0.5"/>
<path id="house-49" d="M 364.77403202111014 714.5416899531746 L 433.3668023056243 714.1794113916321 L 433.89620081970435 790.5807058353066 L 365.7639947499544 791.4260764882018 Z" fill="#E5E7EB" stroke="#374151" stroke-width="0.5"/>
<path id="house-50" d="M 434.0043512577905 714.666677713592 L 501.8766248703457 713.7290249193342 L 502.3160788544891 790.4423125619671 L 435.45514943741415 791.1795545477792 Z" fill="#E5E7EB" stroke="#374151" stroke-width="0.5"/>
<path id="house-51" d="M 502.65118107556174 715.0946519448124 L 571.510459847915 714.8569626345329 L 571.2862149851977 789.8212786034143 L 503.1921955462843 791.6520502453728 Z" fill="#E5E7EB" stroke="#374151" stroke-width="0.5"/>
<path id="house-52" d="M 711.8579530639926 713.9558281365873 L 779.2689331658055 715.4993114328244 L 779.3557159617242 790.0899430876806 L 710.4071291274439 791.6927197504262 Z" fill="#E5E7EB" stroke="#374151" stroke-width="0.5"/>
<path id="house-53" d="M 365.821426227861 792.4865126259403 L 432.9853459463774 792.4965940722221 L 433.5798315047653 868.4416880404799 L 365.488560566832 867.6622482315549 Z" fill="#E5E7EB" stroke="#374151" stroke-width="0.5"/>
<path id="house-54" d="M 434.56950748161023 792.5808390342846 L 501.956324061501 791.0500293025742 L 502.80711178122596 868.0281152836367 L 434.0880357043234 867.6581217226019 Z" fill="#E5E7EB" stroke="#374151" stroke-width="0.5"/>
<path id="house-55" d="M 504.4021977176151 790.836662048677 L 570.7329089135081 791.9709169484973 L 571.7252666552255 867.4588954062781 L 504.4783185072347 868.1067584425402 Z" fill="#E5E7EB" stroke="#374151" stroke-width="0.5"/>
<path id="house-56" d="M 711.1332925835404 792.4455137319381 L 779.9085790446944 791.0158268242294 L 779.0119970855644 868.7131410274197 L 709.9462189682903 868.5872030450328 Z" fill="#E5E7EB" stroke="#374151" stroke-width="0.5"/>
<path id="house-57" d="M 296.8325805443345 20.888943797821277 L 364.51207628476584 19.263036570740372 L 364.6392090346552 96.66134638115139 L 297.31173593547464 95.86366887173531 Z" fill="#E5E7EB" stroke="#374151" stroke-width="0.5"/>
<path id="house-58" d="M 295.43085219980446 97.49230878294101 L 365.0223706299399 96.49117160096316 L 363.92515722336356 172.52119338877793 L 295.3782359642455 173.29752799016777 Z" fill="#E5E7EB" stroke="#374151" stroke-width="0.5"/>
<path id="house-59" d="M 295.55356395944546 174.94323214013477 L 364.51297024495585 174.42515998988335 L 365.195150062248 250.1009236096914 L 296.7800900051107 250.22767015133667 Z" fill="#E5E7EB" stroke="#374151" stroke-width="0.5"/>
<path id="house-60" d="M 295.40744146322214 251.01976623855916 L 363.7347917374235 251.73483579407974 L 365.2759483197797 327.87836546731467 L 297.1182446621847 326.86769778556294 Z" fill="#E5E7EB" stroke="#374151" stroke-width="0.5"/>
<path id="house-61" d="M 19.923262722104287 328.8933076516797 L 88.20234508278884 328.32077985416026 L 87.95043707716891 403.95642966670454 L 19.24020921318575 404.65457556654593 Z" fill="#E5E7EB" stroke="#374151" stroke-width="0.5"/>
<path id="house-62" d="M 20.936319520734628 405.18047742261297 L 89.08438719008338 405.22115483629784 L 88.10814254733278 482.7247850466477 L 19.61683013838069 482.4284671712487 Z" fill="#E5E7EB" stroke="#374151" stroke-width="0.5"/>
<path id="house-63" d="M 19.572812956353314 482.59637069695503 L 88.9407783171733 483.82695455792384 L 88.40782379314562 558.2755884064891 L 19.052026195822563 559.8315798870872 Z" fill="#E5E7EB" stroke="#374151" stroke-width="0.5"/>
<path id="house-64" d="M 19.784897481409036 560.3753791508568 L 88.96101412469261 560.4502399079881 L 88.58024290610284 636.2841599170297 L 20.07681783780555 637.2270335727146 Z" fill="#E5E7EB" stroke="#374151" stroke-width="0.5"/>
<path id="house-65" d="M 20.949604409489783 637.333928165347 L 87.50615766014715 638.0817070970228 L 87.20406133700097 714.1679481620466 L 20.565887929981997 714.3826790745576 Z" fill="#E5E7EB" stroke="#374151" stroke-width="0.5"/>
<path id="house-66" d="M 20.297465490159382 714.1575626793981 L 88.04586815432722 713.9770752477698 L 87.38947697419825 790.105422600408 L 19.239363219881 791.3765197423135 Z" fill="#E5E7EB" stroke="#374151" stroke-width="0.5"/>
<path id="house-67" d="M 19.20030181910519 791.9545649972432 L 88.09253773650079 791.3110028394951 L 88.68340368760398 868.7578826153191 L 20.676235195578023 868.132146037557 Z" fill="#E5E7EB" stroke="#374151" stroke-width="0.5"/>
<path id="house-68" d="M 89.12832406142155 483.3632376380949 L 157.35076747636828 482.4881375755475 L 157.94540643780735 558.4708933546157 L 89.6891011162969 558.9647180183276 Z" fill="#E5E7EB" stroke="#374151" stroke-width="0.5"/>
<path id="house-69" d="M 365.29864425351093 19.677059026615304 L 433.61932346446633 19.316730014367344 L 434.37573992672037 95.98279151178222 L 366.3058586583191 96.95853379674821 Z" fill="#E5E7EB" stroke="#374151" stroke-width="0.5"/>
<path id="house-70" d="M 365.1173813759809 98.08606672118596 L 433.03402442524447 96.46256605631605 L 432.6682463301003 172.80625165380752 L 365.665582535351 174.1860775344481 Z" fill="#E5E7EB" stroke="#374151" stroke-width="0.5"/>
<path id="house-71" d="M 366.30640088092883 174.2983796375594 L 433.44508960106367 173.97221344501452 L 433.8632192062001 249.85832118598336 L 365.60478827828877 250.1839761967714 Z" fill="#E5E7EB" stroke="#374151" stroke-width="0.5"/>
<path id="house-72" d="M 366.3226900092101 251.2997920631527 L 433.84496220231506 250.55125807686207 L 433.5815645018707 328.0561356758234 L 366.2232483908011 328.4621397248957 Z" fill="#E5E7EB" stroke="#374151" stroke-width="0.5"/>
<path id="house-73" d="M 89.21434833184787 329.673976795441 L 156.86392804594888 327.7307712051924 L 156.62115029356363 405.0668726706836 L 89.38680443811177 405.17084317219843 Z" fill="#E5E7EB" stroke="#374151" stroke-width="0.5"/>
<path id="house-74" d="M 88.10133227904849 405.113459912961 L 156.57874843839969 405.2895485714447 L 156.306055970293 482.82707315546065 L 88.55318171535903 481.4679499142033 Z" fill="#E5E7EB" stroke="#374151" stroke-width="0.5"/>
<path id="house-75" d="M 88.17354489781225 483.19862472091205 L 156.94296088851752 482.16556078405915 L 157.43886888231864 558.8140721352885 L 89.5517472591321 559.5367745065599 Z" fill="#E5E7EB" stroke="#374151" stroke-width="0.5"/>
<path id="house-76" d="M 88.70027868812922 559.6401815065225 L 157.4847174867783 560.4864321144887 L 157.00031043546224 635.8050071454845 L 89.17638139056582 636.5452005855269 Z" fill="#E5E7EB" stroke="#374151" stroke-width="0.5"/>
<path id="house-77" d="M 88.1182275704805 638.4397676665781 L 157.49704839235508 636.5031590777754 L 156.84614889844528 713.3587070954119 L 89.24968981209949 713.6444098546774 Z" fill="#E5E7EB" stroke="#374151" stroke-width="0.5"/>
<path id="house-78" d="M 89.46488525684438 714.9684167057145 L 158.1393579784671 715.2187238095717 L 157.9816321289719 790.637629637359 L 89.04588134757952 790.9425601689364 Z" fill="#E5E7EB" stroke="#374151" stroke-width="0.5"/>
<path id="house-79" d="M 89.82187521957653 791.0332774070739 L 156.6839545374277 791.6615842488114 L 156.57637019770007 867.166912626626 L 89.21427560335323 867.8578622260584 Z" fill="#E5E7EB" stroke="#374151" stroke-width="0.5"/>
<path id="house-80" d="M 158.64338471297933 560.9970021561799 L 226.8456792293497 559.9425299983894 L 227.0561052709432 637.2541542435822 L 157.96692016773392 636.0243631864306 Z" fill="#E5E7EB" stroke="#374151" stroke-width="0.5"/>
<path id="house-81" d="M 435.38406776480383 19.30586445761817 L 502.14671804827583 20.719924385032105 L 503.14708421360814 95.39061564387309 L 434.9462877728071 97.1605167527499 Z" fill="#E5E7EB" stroke="#374151" stroke-width="0.5"/>
<path id="house-82" d="M 435.0863246263326 96.30124043058618 L 503.3082026645411 96.79548151643229 L 501.8400478484225 174.18236665491696 L 434.87844145931376 172.45460265719416 Z" fill="#E5E7EB" stroke="#374151" stroke-width="0.5"/>
<path id="house-83" d="M 434.13493487515854 174.5002398675144 L 502.89485097560566 175.0210195413536 L 501.97322485764806 249.89985394566457 L 433.81662758021827 250.54201593896892 Z" fill="#E5E7EB" stroke="#374151" stroke-width="0.5"/>
<path id="house-84" d="M 434.1749408805821 252.4045283658999 L 502.98244538604916 251.98124602901973 L 503.3796976360204 327.72111582810646 L 434.95287806052363 328.34083293222517 Z" fill="#E5E7EB" stroke="#374151" stroke-width="0.5"/>
<path id="house-85" d="M 157.9994861597252 328.63202136630235 L 225.73083787508438 328.66077259815773 L 227.2473184546935 405.60618042003875 L 158.24453220487646 405.01027500696097 Z" fill="#E5E7EB" stroke="#374151" stroke-width="0.5"/>
<path id="house-86" d="M 158.6037467542479 405.17144459328586 L 225.64870136865832 405.4483165661484 L 226.0292778434887 481.4839066161862 L 157.44495348389285 482.59340648426337 Z" fill="#E5E7EB" stroke="#374151" stroke-width="0.5"/>
<path id="house-87" d="M 157.63045014697704 482.8458022984724 L 225.99552395618943 483.08393016489134 L 227.23512218888908 559.8570157049797 L 158.62448579398196 560.1735998619884 Z" fill="#E5E7EB" stroke="#374151" stroke-width="0.5"/>
<path id="house-88" d="M 157.77419846727642 559.2831272641708 L 225.69805111385634 560.7828979619604 L 225.29030920263162 636.8065178985297 L 158.15700210426624 636.3481932777839 Z" fill="#E5E7EB" stroke="#374151" stroke-width="0.5"/>
<path id="house-89" d="M 157.9851014935946 636.4564466234336 L 227.06051506986674 637.1196786195485 L 227.0679808664335 713.1585367898294 L 158.4823343116799 713.7597291386289 Z" fill="#E5E7EB" stroke="#374151" stroke-width="0.5"/>
<path id="house-90" d="M 158.8223821394471 715.2811339128071 L 226.37311378765 714.3206221064837 L 226.00080385595768 791.5942895857322 L 157.48485096066005 791.0550743654536 Z" fill="#E5E7EB" stroke="#374151" stroke-width="0.5"/>
<path id="house-91" d="M 158.8782094466621 791.5720078545554 L 225.5910123970011 792.6710636427061 L 225.9862152841349 868.8235660484731 L 158.45693702552254 868.8988043603664 Z" fill="#E5E7EB" stroke="#374151" stroke-width="0.5"/>
<path id="house-92" d="M 227.68523382789874 636.8741405642679 L 296.3139498058915 636.9942937739721 L 296.04841276951015 714.3544709281884 L 226.30176524003588 713.7939166651144 Z" fill="#E5E7EB" stroke="#374151" stroke-width="0.5"/>
<path id="house-93" d="M 503.93239658894885 19.93668324330063 L 571.7541068141895 20.039741383502427 L 571.1865895143047 96.85748198983197 L 503.088381380832 95.48801172037672 Z" fill="#E5E7EB" stroke="#374151" stroke-width="0.5"/>
<path id="house-94" d="M 504.3915258738223 97.19861507408869 L 572.349336048395 96.96469280471236 L 572.1298975952587 173.37745327766507 L 503.3211526736183 173.46227116801552 Z" fill="#E5E7EB" stroke="#374151" stroke-width="0.5"/>
<path id="house-95" d="M 504.06337212894243 174.11563868695066 L 571.7324746241717 173.58760009763648 L 571.0748099323506 249.7356191492187 L 503.9301262175003 250.96005731020838 Z" fill="#E5E7EB" stroke="#374151" stroke-width="0.5"/>
<path id="house-96" d="M 503.4038262351912 251.23380917100275 L 570.9415810201629 251.5037928599782 L 572.5899177719035 327.0627266531076 L 504.4781994176921 327.54618753736355 Z" fill="#E5E7EB" stroke="#374151" stroke-width="0.5"/>
<path id="house-97" d="M 227.19602180692723 328.3807261493751 L 294.4735371172176 328.20425469563327 L 294.7073918762391 404.70138122821334 L 227.35323354082942 405.3064019688368 Z" fill="#E5E7EB" stroke="#374151" stroke-width="0.5"/>
<path id="house-98" d="M 226.7933670445025 405.1521734169625 L 295.72842941377075 405.39750318421835 L 294.53218006530534 482.960732729495 L 227.72959884257537 481.63299618419427 Z" fill="#E5E7EB" stroke="#374151" stroke-width="0.5"/>
<path id="house-99" d="M 226.79908167920524 483.99245758994533 L 295.29758816590265 482.55716159599035 L 296.19058420728084 560.0926416682038 L 228.00247548850092 559.9273197628534 Z" fill="#E5E7EB" stroke="#374151" stroke-width="0.5"/>
<path id="house-100" d="M 226.44372897086026 559.7654397641361 L 294.49806563569234 559.8119813226273 L 294.5346743373197 636.2208564322533 L 227.40111851588742 636.1499677867938 Z" fill="#E5E7EB" stroke="#374151" stroke-width="0.5"/>
<path id="house-101" d="M 228.09308057250573 636.7739661730182 L 294.59816964367917 637.2860014867009 L 294.83013838923756 713.8669873103544 L 227.8612383647599 714.2177894491477 Z" fill="#E5E7EB" stroke="#374151" stroke-width="0.5"/>
<path id="house-102" d="M 227.2040299301239 713.868695300569 L 295.62272411583837 714.1392556507392 L 294.4387582217169 789.9277249701279 L 228.19140149031907 789.8342989080866 Z" fill="#E5E7EB" stroke="#374151" stroke-width="0.5"/>
<path id="house-103" d="M 227.1038421887654 791.0064651279024 L 296.3322908858601 790.8628249579535 L 295.6165341906658 868.9260900797177 L 227.4683522946609 868.6533352696584 Z" fill="#E5E7EB" stroke="#374151" stroke-width="0.5"/>
<path id="house-104" d="M 295.61518880628074 715.2691313466612 L 364.5838225350759 713.7906059915537 L 364.08798662163883 790.9608512136399 L 295.8902404201758 790.289116191868 Z" fill="#E5E7EB" stroke="#374151" stroke-width="0.5"/>
<path id="house-105" d="M 573.5549188848029 19.47475049779737 L 640.9299289298159 20.899509729505986 L 641.5973245842827 95.36961549776225 L 572.0809039470447 95.5624808670343 Z" fill="#E5E7EB" stroke="#374151" stroke-width="0.5"/>
<path id="house-106" d="M 572.8875652423319 97.61819477200753 L 640.2510193232807 97.00228491789247 L 640.6515220353411 172.50524008825985 L 572.2728448268962 172.78625293661872 Z" fill="#E5E7EB" stroke="#374151" stroke-width="0.5"/>
<path id="house-107" d="M 572.1707486876013 174.0456618138797 L 640.1765679196773 174.76553708151678 L 641.7179536105489 249.8905955804625 L 573.1461094201818 250.62637526026026 Z" fill="#E5E7EB" stroke="#374151" stroke-width="0.5"/>
<path id="house-108" d="M 573.3928243701281 251.78754113627448 L 641.7690138745019 251.0252004942584 L 641.2708877949049 327.14762010618085 L 571.8693438831642 327.39867290370285 Z" fill="#E5E7EB" stroke="#374151" stroke-width="0.5"/>
<path id="house-109" d="M 642.7588660768556 328.31018038070386 L 710.7547092453542 329.3487168121095 L 709.8753836108441 403.9306250454928 L 641.8790600937417 404.83882154985275 Z" fill="#E5E7EB" stroke="#374151" stroke-width="0.5"/>
<path id="house-110" d="M 642.4648362173459 405.1396911993275 L 708.9440461230754 405.181504694789 L 710.7337182630552 481.24243502812726 L 642.3736532961597 482.59978042771996 Z" fill="#E5E7EB" stroke="#374151" stroke-width="0.5"/>
<path id="house-111" d="M 641.6766506896048 483.8723754043422 L 710.5198294918025 482.8097192824411 L 709.0328205236146 559.3616287559139 L 641.9876931522414 560.0546226669559 Z" fill="#E5E7EB" stroke="#374151" stroke-width="0.5"/>
<path id="house-112" d="M 642.6066813125348 559.8932519916989 L 710.8824450913785 560.7714784475487 L 709.1678440620016 636.3065599847893 L 642.7133712808977 636.0002404858484 Z" fill="#E5E7EB" stroke="#374151" stroke-width="0.5"/>
<path id="house-113" d="M 296.96317003695805 638.0502650948201 L 365.1376155996994 637.9093085402287 L 364.2387106069115 714.3626090420977 L 297.1595952079254 713.278709403061 Z" fill="#E5E7EB" stroke="#374151" stroke-width="0.5"/>
<path id="house-114" d="M 296.9767362903836 714.1681471801941 L 364.6820714258684 714.220516234105 L 364.27157963883394 790.0486246393981 L 297.22964431304695 791.39623677747 Z" fill="#E5E7EB" stroke="#374151" stroke-width="0.5"/>
<path id="house-115" d="M 295.4854237484587 791.7793694971581 L 364.06339002670046 791.3230110968361 L 364.53399904892854 867.7734569699585 L 297.0742496626748 868.8162768646666 Z" fill="#E5E7EB" stroke="#374151" stroke-width="0.5"/>
<path id="house-116" d="M 364.56710363771464 792.2130614765122 L 433.922394807831 791.8934542694185 L 434.45396875998597 868.0682403941921 L 364.65328173989303 868.7656594401242 Z" fill="#E5E7EB" stroke="#374151" stroke-width="0.5"/>
<path id="house-117" d="M 641.4894699942638 19.045931981922525 L 710.7476938648738 19.92405834136915 L 710.0640370116402 95.38607257036452 L 642.6729046501315 95.5913828586816 Z" fill="#E5E7EB" stroke="#374151" stroke-width="0.5"/>
<path id="house-118" d="M 641.6295442624369 97.56572881039942 L 710.339903359093 96.5321664559219 L 709.9741656096365 172.4716036596619 L 641.1098623039488 172.87559959051248 Z" fill="#E5E7EB" stroke="#374151" stroke-width="0.5"/>
<path id="house-119" d="M 641.1030720532732 175.25090552195084 L 709.7500089119961 173.466653834548 L 710.875914395049 250.00692391073255 L 642.6181267318561 250.3979692151417 Z" fill="#E5E7EB" stroke="#374151" stroke-width="0.5"/>
<path id="house-120" d="M 642.3690403884207 252.0212979968683 L 709.6137065321777 251.77923528268005 L 710.7124492562764 327.8309354476743 L 640.8928062095632 327.6681802024857 Z" fill="#E5E7EB" stroke="#374151" stroke-width="0.5"/>
</g>
</svg>