<?xml version="1.0"?>
<svg xmlns="http://www.w3.org/2000/svg" version="1.2" baseProfile="tiny" width="800" height="889" viewBox="0 0 800 889" stroke-linecap="round" stroke-linejoin="round">
<g id="fl_senate_districts">
<path id="senate-1" d="M 20.475386572287366 19.278275228251797 L 144.84909396132988 20.000305582584982 L 146.25100422674873 140.193707661011 L 20.784680450809972 139.61289055268227 Z" fill="#E5E7EB" stroke="#374151" stroke-width="0.5"/>
<path id="senate-2" d="M 145.7595878700917 20.691660399128466 L 272.1232833972001 20.56088792753219 L 271.91202884735753 140.7872428597946 L 147.1291508336907 140.2660004131163 Z" fill="#E5E7EB" stroke="#374151" stroke-width="0.5"/>
<path id="senate-3" d="M 273.8521018932122 20.14675861919298 L 398.85761767384884 20.357879954164385 L 398.31421706843435 140.32995833703873 L 274.1488062397331 139.9513658986167 Z" fill="#E5E7EB" stroke="#374151" stroke-width="0.5"/>
<path id="senate-4" d="M 400.588120093637 20.01096084628426 L 526.3721271111525 19.926979107362982 L 525.2187813715237 141.2336772341635 L 399.7190053201827 140.38485782986228 Z" fill="#E5E7EB" stroke="#374151" stroke-width="0.5"/>
<path id="senate-5" d="M 20.906635795444082 141.7399962738962 L 145.28293220275117 141.38912130543505 L 145.3222246718331 261.68224321822584 L 20.228906214742405 260.93565210938436 Z" fill="#E5E7EB" stroke="#374151" stroke-width="0.5"/>
<path id="senate-6" d="M 146.04841045823278 141.19893288326944 L 271.65009778927407 141.1900646108813 L 272.45739702321714 262.1398487924138 L 146.30710023782697 260.9241253963534 Z" fill="#E5E7EB" stroke="#374151" stroke-width="0.5"/>
<path id="senate-7" d="M 273.8136294102162 141.09959138439194 L 399.6364328899709 142.0396442228386 L 399.93526048050586 261.93180724760526 L 273.7071998823735 261.7932850738952 Z" fill="#E5E7EB" stroke="#374151" stroke-width="0.5"/>
<path id="senate-8" d="M 400.3752900396595 140.89066027411772 L 525.5563810385636 140.29838748216872 L 526.2198606444181 261.19280831275586 L 399.6124994225118 260.9850462318304 Z" fill="#E5E7EB" stroke="#374151" stroke-width="0.5"/>
<path id="senate-9" d="M 19.24643168329252 263.41765807172345 L 145.5902698492196 262.1080589326299 L 146.10942130238809 381.8676637896572 L 19.126019397596497 382.473748704828 Z" fill="#E5E7EB" stroke="#374151" stroke-width="0.5"/>
<path id="senate-10" d="M 147.30610280646715 262.1378126105891 L 273.0572470672362 263.2815502758814 L 272.5544431054385 383.09928359016226 L 146.60469964640288 382.16377674850855 Z" fill="#E5E7EB" stroke="#374151" stroke-width="0.5"/>
<path id="senate-11" d="M 272.41355336565493 262.43153198430844 L 399.4462880765086 263.0746057591847 L 398.3268719470404 382.78433283224916 L 273.15011085317457 382.50527358399785 Z" fill="#E5E7EB" stroke="#374151" stroke-width="0.5"/>
<path id="senate-12" d="M 399.9285028694464 262.42906366147685 L 525.0692162097113 261.8340422254388 L 526.4523183416696 383.1626093619851 L 399.7232377818821 382.4633060516485 Z" fill="#E5E7EB" stroke="#374151" stroke-width="0.5"/>
<path id="senate-13" d="M 20.565324032072773 383.2601851049998 L 144.9191960154699 383.49491500226577 L 146.13511191745434 504.5091489682487 L 19.69843656984064 504.2855607707941 Z" fill="#E5E7EB" stroke="#374151" stroke-width="0.5"/>
<path id="senate-14" d="M 146.1437617846459 383.02284537370707 L 272.7583019617845 383.14580613234205 L 271.3545469990575 503.79648965511467 L 147.05004752681396 505.05863985479346 Z" fill="#E5E7EB" stroke="#374151" stroke-width="0.5"/>
<path id="senate-15" d="M 273.9892093960032 383.8891414047062 L 399.63893950557343 383.1717932712693 L 398.3021020583312 503.82693997270604 L 272.8580945799092 504.3909134460836 Z" fill="#E5E7EB" stroke="#374151" stroke-width="0.5"/>
<path id="senate-16" d="M 400.21744472463064 384.8552324051835 L 526.4941044381403 382.92410012109593 L 525.1622015319347 503.53632433598676 L 400.7852046281955 503.924924846661 Z" fill="#E5E7EB" stroke="#374151" stroke-width="0.5"/>
<path id="senate-17" d="M 526.7141813498259 505.9013407940521 L 652.2329898862959 505.6316431665596 L 653.2897437933791 625.4915846962014 L 526.9559513350495 626.4083186797127 Z" fill="#E5E7EB" stroke="#374151" stroke-width="0.5"/>
<path id="senate-18" d="M 652.3374273015595 504.93518349683114 L 778.3697515229901 505.80910704342415 L 779.4934492755949 626.3728524279965 L 654.0367915512287 624.583671819871 Z" fill="#E5E7EB" stroke="#374151" stroke-width="0.5"/>
<path id="senate-19" d="M 527.0837212130282 626.6628852400577 L 651.3823837080781 625.9862229156192 L 652.0743306775869 747.5407460612778 L 527.5020027241228 746.8032309915819 Z" fill="#E5E7EB" stroke="#374151" stroke-width="0.5"/>
<path id="senate-20" d="M 653.2689224292005 625.7075864621548 L 778.7090754645959 626.3665282399477 L 779.4615210535668 747.6955994779604 L 653.7548664294359 746.8218553544808 Z" fill="#E5E7EB" stroke="#374151" stroke-width="0.5"/>
<path id="senate-21" d="M 526.3910167358779 748.6832336440425 L 651.4398660682228 748.6669152882023 L 652.1188599822002 868.0524547359292 L 525.932319740667 867.7638430050138 Z" fill="#E5E7EB" stroke="#374151" stroke-width="0.5"/>
<path id="senate-22" d="M 654.1460094462016 747.3937829257364 L 779.0568633617189 748.4615865906827 L 779.697713019029 867.1248102272547 L 654.0975633978181 868.9450917456533 Z" fill="#E5E7EB" stroke="#374151" stroke-width="0.5"/>
<path id="senate-23" d="M 526.6669738924074 19.577967689402403 L 652.6038786774986 20.507052700721225 L 652.0060185284309 139.54628975124967 L 526.9283031233649 140.65710419599537 Z" fill="#E5E7EB" stroke="#374151" stroke-width="0.5"/>
<path id="senate-24" d="M 526.9104223814295 142.01907646625892 L 652.9833242662307 142.21770490327793 L 652.1308008653587 261.69882324864903 L 527.5503641831859 260.86487160011546 Z" fill="#E5E7EB" stroke="#374151" stroke-width="0.5"/>
<path id="senate-25" d="M 526.0715371537184 263.0217883182138 L 653.2832123723043 262.14689330585855 L 653.2952608172299 382.37383309707195 L 527.3874817042818 382.27508959358124 Z" fill="#E5E7EB" stroke="#374151" stroke-width="0.5"/>
<path id="senate-26" d="M 527.2064413641001 383.65328676659493 L 652.5057162160701 384.23667263452137 L 651.5012835350975 503.4976303145777 L 526.5620417494523 503.7291787547392 Z" fill="#E5E7EB" stroke="#374151" stroke-width="0.5"/>
<path id="senate-27" d="M 20.41338681874104 505.8619542147124 L 145.79811540512554 505.170352004939 L 145.29826329483436 625.2440096351008 L 19.306411534082336 625.2028884959383 Z" fill="#E5E7EB" stroke="#374151" stroke-width="0.5"/>
<path id="senate-28" d="M 19.813592713352595 627.0281900497396 L 144.76368697285812 626.3668476530588 L 146.603930516361 746.6655827498628 L 19.334515725194997 746.9530928686554 Z" fill="#E5E7EB" stroke="#374151" stroke-width="0.5"/>
<path id="senate-29" d="M 20.55631409907534 748.4495746991034 L 145.83392434466322 748.4358730361582 L 145.80748379776495 868.5598145815989 L 20.699791085195574 867.7540944802929 Z" fill="#E5E7EB" stroke="#374151" stroke-width="0.5"/>
<path id="senate-30" d="M 652.3434398301941 506.0159258462449 L 778.9551280930547 505.16437563336814 L 778.3600067706591 624.8862787351885 L 653.9232924471969 624.597171485362 Z" fill="#E5E7EB" stroke="#374151" stroke-width="0.5"/>
<path id="senate-31" d="M 654.171563754504 19.073874704231613 L 778.4800631695448 20.858231032138377 L 779.8872409176302 140.84557829626718 L 653.5563273430193 140.46914252511243 Z" fill="#E5E7EB" stroke="#374151" stroke-width="0.5"/>
<path id="senate-32" d="M 652.3635962880345 140.8710774039555 L 778.6786268054843 140.98160215413344 L 779.1146603835616 262.08415990573474 L 654.3257734825378 261.34250557485973 Z" fill="#E5E7EB" stroke="#374151" stroke-width="0.5"/>
<path id="senate-33" d="M 653.2369993360747 262.52147973802136 L 779.953078973858 263.42044057078374 L 779.0963906282727 383.44851789077944 L 654.2722237306821 382.22267623636395 Z" fill="#E5E7EB" stroke="#374151" stroke-width="0.5"/>
<path id="senate-34" d="M 652.3723633656632 383.1751353082954 L 778.9080911506366 383.5659720274302 L 779.4658569294537 504.4096988554849 L 652.9268895758601 504.04748961629787 Z" fill="#E5E7EB" stroke="#374151" stroke-width="0.5"/>
<path id="senate-35" d="M 146.23460080879562 505.2421911647132 L 273.11139714429885 506.0213093538364 L 271.94840280962467 625.3975554986179 L 147.3770822463502 626.4112289460477 Z" fill="#E5E7EB" stroke="#374151" stroke-width="0.5"/>
<path id="senate-36" d="M 146.48659395661107 625.4477783317544 L 272.06793702565045 626.6852705106986 L 272.1724903388361 746.1095880036108 L 146.26845282281988 747.0944543452291 Z" fill="#E5E7EB" stroke="#374151" stroke-width="0.5"/>
<path id="senate-37" d="M 147.4073128235094 746.8340196152504 L 272.29375863147527 748.0511458631123 L 272.7653242908981 868.8549620967613 L 147.66469581450664 867.7563065161181 Z" fill="#E5E7EB" stroke="#374151" stroke-width="0.5"/>
<path id="senate-38" d="M 145.93299136317404 747.9011839059351 L 273.06340449849586 747.5857037480858 L 272.5465854397378 867.6134201830922 L 147.31678407046593 867.8100881520777 Z" fill="#E5E7EB" stroke="#374151" stroke-width="0.5"/>
<path id="senate-39" d="M 273.80426105678754 505.6893626220143 L 398.6274440678702 505.46109831916755 L 398.6919356887123 624.9886890827134 L 272.8386837736662 624.952108412558 Z" fill="#E5E7EB" stroke="#374151" stroke-width="0.5"/>
<path id="senate-40" d="M 272.3751903439874 625.8052523898573 L 398.78464658652894 625.4480171665308 L 398.3033211834317 746.619523708853 L 273.13289512011085 747.553658825044 Z" fill="#E5E7EB" stroke="#374151" stroke-width="0.5"/>
</g>
</svg>