<?xml version="1.0"?>
<svg xmlns="http://www.w3.org/2000/svg" version="1.2" baseProfile="tiny" width="800" height="1067" viewBox="0 0 800 1067" stroke-linecap="round" stroke-linejoin="round">
<g id="ga_house_districts">
<path id="house-1" d="M 19.171243451205463 19.941889749452844 L 82.71705179084653 19.972659756495002 L 83.3262711836527 88.11816792083317 L 20.686858173074416 88.1474980577251 Z" fill="#E5E7EB" stroke="#374151" stroke-width="0.5"/>
<path id="house-2" d="M 82.647514937729 20.46890598823306 L 145.19524681779689 20.09582601852125 L 146.64025899592153 88.0756176961819 L 83.96551423414064 86.4745356980361 Z" fill="#E5E7EB" stroke="#374151" stroke-width="0.5"/>
<path id="house-3" d="M 145.7055889365593 19.569574666316583 L 209.6762417802366 20.153714431232867 L 208.07981879923457 86.92399489967094 L 146.5673839884085 86.59150556110924 Z" fill="#E5E7EB" stroke="#374151" stroke-width="0.5"/>
<path id="house-4" d="M 210.09911225747612 19.18645753388631 L 272.99408713468824 19.18242569648867 L 273.1003218807608 86.60946172947418 L 209.12944290132998 87.6974266741777 Z" fill="#E5E7EB" stroke="#374151" stroke-width="0.5"/>
<path id="house-5" d="M 273.3791211527771 19.13021446112261 L 335.5985211253742 20.161951053273295 L 335.84824040477946 88.10581366731797 L 273.284251351474 86.73571381708517 Z" fill="#E5E7EB" stroke="#374151" stroke-width="0.5"/>
<path id="house-6" d="M 336.36784974923165 19.077660905432058 L 399.0718211764536 20.61923463597102 L 399.0226537627897 86.85248240329715 L 337.44105791605324 86.82448789249683 Z" fill="#E5E7EB" stroke="#374151" stroke-width="0.5"/>
<path id="house-7" d="M 399.108049580723 19.603831860426695 L 462.9424292768728 19.741736380666907 L 461.78853463995983 88.17893925075103 L 399.003395766953 87.8457952231465 Z" fill="#E5E7EB" stroke="#374151" stroke-width="0.5"/>
<path id="house-8" d="M 463.2851140783787 20.487797371246344 L 525.4735911596423 20.373959175212374 L 526.3185023727357 87.32642887589485 L 462.93719751154356 88.35647790180698 Z" fill="#E5E7EB" stroke="#374151" stroke-width="0.5"/>
<path id="house-9" d="M 526.653078896544 20.503976657192162 L 588.7892369886592 19.082232876685122 L 589.39945479914 88.41780808378259 L 526.4717392551161 87.628923870932 Z" fill="#E5E7EB" stroke="#374151" stroke-width="0.5"/>
<path id="house-10" d="M 590.3064232663633 20.01771371226755 L 652.3806002072731 19.794065805076897 L 653.1802793490834 86.79518497143654 L 589.6956328446332 88.36637005028656 Z" fill="#E5E7EB" stroke="#374151" stroke-width="0.5"/>
<path id="house-11" d="M 652.7612318864395 20.185418444073356 L 715.2959546117241 20.779266629863436 L 716.4042585119801 87.20890981024975 L 652.9150436226731 88.30058499952185 Z" fill="#E5E7EB" stroke="#374151" stroke-width="0.5"/>
<path id="house-12" d="M 716.8900017505855 19.64457086163243 L 778.2193960715168 20.13565632681069 L 779.107599258938 86.51973699796443 L 716.969018899285 87.36445657949955 Z" fill="#E5E7EB" stroke="#374151" stroke-width="0.5"/>
<path id="house-13" d="M 20.15118390973716 88.27320871169438 L 82.73355880073059 87.67222110568946 L 82.44935214240928 156.03358193113792 L 20.876349197822304 156.71472819588965 Z" fill="#E5E7EB" stroke="#374151" stroke-width="0.5"/>
<path id="house-14" d="M 83.40797518471192 89.37371193565642 L 145.0105335677468 88.23260583723406 L 145.99429668725196 156.13316370377152 L 83.02061456148056 155.07607402642915 Z" fill="#E5E7EB" stroke="#374151" stroke-width="0.5"/>
<path id="house-15" d="M 147.3072705156141 89.31973367719006 L 209.64588902740212 87.54032113105693 L 208.11558481030414 156.61654819228414 L 146.80318878909645 155.74908135282774 Z" fill="#E5E7EB" stroke="#374151" stroke-width="0.5"/>
<path id="house-16" d="M 210.9868731566321 89.25981195420923 L 272.78578304459774 89.32154358818117 L 272.1805411710282 155.13160975670425 L 210.51864831843514 156.49007435886924 Z" fill="#E5E7EB" stroke="#374151" stroke-width="0.5"/>
<path id="house-17" d="M 272.49845228096865 87.50183193827917 L 334.90906613441933 88.23491414607714 L 335.9435523830418 156.70455309683854 L 273.80503829101764 156.41051211906355 Z" fill="#E5E7EB" stroke="#374151" stroke-width="0.5"/>
<path id="house-18" d="M 336.70167951260504 89.31744067687816 L 398.26576311383485 88.7484534464938 L 398.72001477539067 155.30542125117705 L 335.94485234724186 155.91566209240293 Z" fill="#E5E7EB" stroke="#374151" stroke-width="0.5"/>
<path id="house-19" d="M 399.8540566446861 88.78270067878628 L 461.36930539370957 88.36682718776574 L 462.23955234297813 155.5652370563491 L 399.3495757725403 155.3735218045793 Z" fill="#E5E7EB" stroke="#374151" stroke-width="0.5"/>
<path id="house-20" d="M 462.72847568596006 87.81017184173743 L 526.541809935188 87.56504075719025 L 524.944196114084 156.15997563098367 L 464.1892348903941 155.56808396934784 Z" fill="#E5E7EB" stroke="#374151" stroke-width="0.5"/>
<path id="house-21" d="M 526.7169396630828 89.43966890287183 L 589.6587924200268 89.22431651316772 L 589.1951247866389 156.75233538129393 L 525.8739645679561 155.70187194249024 Z" fill="#E5E7EB" stroke="#374151" stroke-width="0.5"/>
<path id="house-22" d="M 589.6508510518795 89.06641956763136 L 651.6313223978677 88.86071782412866 L 652.5603800701816 155.89097239231393 L 590.8094890117684 155.21198689413663 Z" fill="#E5E7EB" stroke="#374151" stroke-width="0.5"/>
<path id="house-23" d="M 653.3295487713085 89.22853324300067 L 716.1505422131867 89.00857364300553 L 715.654791758814 156.04404567254852 L 653.4639400748866 155.81822995429656 Z" fill="#E5E7EB" stroke="#374151" stroke-width="0.5"/>
<path id="house-24" d="M 716.8369827558421 87.94329374228502 L 778.9854063605287 88.67803304460483 L 779.2878890651855 156.19371136487206 L 716.1803994020122 155.07270590681273 Z" fill="#E5E7EB" stroke="#374151" stroke-width="0.5"/>
<path id="house-25" d="M 20.82149308286006 156.40573418164882 L 83.06620678115357 156.77515203338916 L 83.04973191308876 223.6720197612783 L 19.207256529379784 224.61765461894004 Z" fill="#E5E7EB" stroke="#374151" stroke-width="0.5"/>
<path id="house-26" d="M 83.85152020339636 157.23317855192843 L 146.65826541700815 156.80186365858216 L 145.15684684567327 225.00332932758303 L 83.50274556455496 225.3273785782382 Z" fill="#E5E7EB" stroke="#374151" stroke-width="0.5"/>
<path id="house-27" d="M 147.27023800557672 156.14359876219578 L 209.84874206320035 157.91100496720915 L 209.1386703254838 224.04685898864938 L 147.06874396901998 224.8375623108116 Z" fill="#E5E7EB" stroke="#374151" stroke-width="0.5"/>
<path id="house-28" d="M 210.62416309543858 156.22282101088433 L 271.3844643251207 156.3405820907862 L 272.63170836301384 224.61501828132177 L 209.63653884530726 223.42728600195355 Z" fill="#E5E7EB" stroke="#374151" stroke-width="0.5"/>
<path id="house-29" d="M 272.983189663383 157.79194199428608 L 334.7930913805652 156.77494199776862 L 336.1500841240723 224.1547117981713 L 273.02400204022194 223.91337634892838 Z" fill="#E5E7EB" stroke="#374151" stroke-width="0.5"/>
<path id="house-30" d="M 336.28857660383034 157.08878644697242 L 398.5245687061475 156.22116152925747 L 398.77055001754997 224.32501954740792 L 337.63407554639383 224.1739868002345 Z" fill="#E5E7EB" stroke="#374151" stroke-width="0.5"/>
<path id="house-31" d="M 400.6058529926689 156.64970608031592 L 462.50967200659886 156.11798300430516 L 461.4907705582875 223.9919931607862 L 399.9845989066232 223.69002024314196 Z" fill="#E5E7EB" stroke="#374151" stroke-width="0.5"/>
<path id="house-32" d="M 463.1343506751181 156.6894919565418 L 524.8807966185909 156.4772493783171 L 525.7384320520898 223.83555950693778 L 463.7149198982436 225.361538430319 Z" fill="#E5E7EB" stroke="#374151" stroke-width="0.5"/>
<path id="house-33" d="M 525.7810253948619 157.80473299879756 L 588.2947828216213 157.0654092045244 L 589.4763991922604 223.88369671586503 L 527.5529675735602 224.0472567601691 Z" fill="#E5E7EB" stroke="#374151" stroke-width="0.5"/>
<path id="house-34" d="M 589.2007963006358 157.22213880284477 L 651.7656128102896 157.0239312238673 L 652.2112737018678 224.45002867954233 L 590.162958714051 224.098738645576 Z" fill="#E5E7EB" stroke="#374151" stroke-width="0.5"/>
<path id="house-35" d="M 653.0142936556061 156.6691477412336 L 716.2413776919763 156.3442927290482 L 715.9417898737879 224.2688244750684 L 652.6187546829449 223.45333931505078 Z" fill="#E5E7EB" stroke="#374151" stroke-width="0.5"/>
<path id="house-36" d="M 716.0783070936686 156.34394473085285 L 778.2396111773193 156.95132527141186 L 778.0289405876031 224.48616067003022 L 716.4570170866942 224.5619676301136 Z" fill="#E5E7EB" stroke="#374151" stroke-width="0.5"/>
<path id="house-37" d="M 20.183675861057523 225.04052422602746 L 81.3654949886007 225.72163047491634 L 82.91459101126142 292.16311210226485 L 20.67914443600253 292.3984711603444 Z" fill="#E5E7EB" stroke="#374151" stroke-width="0.5"/>
<path id="house-38" d="M 83.40515028045934 225.4400241094049 L 146.2520631415945 225.8508767037467 L 146.17519291953784 293.8559441542934 L 83.36171604825053 293.0646074673133 Z" fill="#E5E7EB" stroke="#374151" stroke-width="0.5"/>
<path id="house-39" d="M 147.33658945594814 225.22734191300435 L 209.2938149215105 226.159187740567 L 209.8230065535129 292.15119138693836 L 146.76709817031332 293.50411389825484 Z" fill="#E5E7EB" stroke="#374151" stroke-width="0.5"/>
<path id="house-40" d="M 209.10892207989002 224.51946030256835 L 272.0577215434492 224.81587123907022 L 272.7542608247335 291.9084818335004 L 210.13730266798567 292.48172600745806 Z" fill="#E5E7EB" stroke="#374151" stroke-width="0.5"/>
<path id="house-41" d="M 274.14037741508787 224.88856820863978 L 334.8532680206169 225.68588403573725 L 336.0518721760239 293.3566496697238 L 273.4325663676695 293.0393398064982 Z" fill="#E5E7EB" stroke="#374151" stroke-width="0.5"/>
<path id="house-42" d="M 337.3158777843765 225.208346065186 L 398.08697575265575 225.7609485052525 L 398.7490394068349 293.0694029029388 L 336.3418493821899 291.88819581720475 Z" fill="#E5E7EB" stroke="#374151" stroke-width="0.5"/>
<path id="house-43" d="M 400.2171742463302 226.30944944079707 L 462.7726605357192 226.39441092005856 L 461.76863521905835 293.6115604779893 L 400.3067668226249 291.972378713147 Z" fill="#E5E7EB" stroke="#374151" stroke-width="0.5"/>
<path id="house-44" d="M 462.84480005599306 226.1758173195092 L 524.8943403752389 226.05339688751351 L 525.2908151560015 292.9630400012633 L 464.14263474334473 292.41028824989576 Z" fill="#E5E7EB" stroke="#374151" stroke-width="0.5"/>
<path id="house-45" d="M 526.2577618549902 225.73670631530305 L 588.8898557586019 225.46106051540434 L 589.1726568641025 292.2193934213387 L 527.1447612500942 292.1006445934695 Z" fill="#E5E7EB" stroke="#374151" stroke-width="0.5"/>
<path id="house-46" d="M 590.7575202586266 225.9416250753591 L 652.4692242239496 226.35680443785245 L 652.4239798093752 292.53374519568627 L 590.8661139459733 292.88415019305177 Z" fill="#E5E7EB" stroke="#374151" stroke-width="0.5"/>
<path id="house-47" d="M 654.1280382745875 225.16943204077603 L 716.2033991647274 226.07219315540988 L 715.9207433135272 292.59073367863834 L 654.2482946799573 292.19489097144043 Z" fill="#E5E7EB" stroke="#374151" stroke-width="0.5"/>
<path id="house-48" d="M 717.3052288827489 225.73294065402368 L 779.8888028961586 224.87851953478508 L 779.7656922773685 293.11482184377905 L 717.6652093350291 292.618532769055 Z" fill="#E5E7EB" stroke="#374151" stroke-width="0.5"/>
<path id="house-49" d="M 20.061968348934027 294.64826118509524 L 81.64090290113002 294.24149248390506 L 81.92897393734489 361.7222954401646 L 20.152161462749195 362.07231171566895 Z" fill="#E5E7EB" stroke="#374151" stroke-width="0.5"/>
<path id="house-50" d="M 83.80385715437384 292.8885564430135 L 146.22403768104985 293.2354751547366 L 146.55584544349688 360.8674545139705 L 83.03862578153775 361.1910583462096 Z" fill="#E5E7EB" stroke="#374151" stroke-width="0.5"/>
<path id="house-51" d="M 146.92212397037224 294.27421425356204 L 208.06936242847777 294.24998748798004 L 208.4417015327837 361.1874566619517 L 146.70320999262108 362.1727832182198 Z" fill="#E5E7EB" stroke="#374151" stroke-width="0.5"/>
<path id="house-52" d="M 209.01180372979644 294.07687065708814 L 272.8672880423952 294.8156757645695 L 273.0714819959232 360.91416090976946 L 210.34874229925103 361.58212895549235 Z" fill="#E5E7EB" stroke="#374151" stroke-width="0.5"/>
<path id="house-53" d="M 272.63076601433056 293.52356395622746 L 336.25966749018295 293.5282917644131 L 336.4760270449067 362.0757302656023 L 272.8051703817339 360.5788768095801 Z" fill="#E5E7EB" stroke="#374151" stroke-width="0.5"/>
<path id="house-54" d="M 336.23456551729333 294.50131893004055 L 398.3900744098977 293.4413385697064 L 398.5527895080263 360.3955667894831 L 337.1893780664879 361.85371765201216 Z" fill="#E5E7EB" stroke="#374151" stroke-width="0.5"/>
<path id="house-55" d="M 399.0064539745111 293.6599466131175 L 463.2263951119238 294.62464497817666 L 461.6599296479132 361.8251616466521 L 400.91045698867043 361.47850350872073 Z" fill="#E5E7EB" stroke="#374151" stroke-width="0.5"/>
<path id="house-56" d="M 463.5512409986067 293.24490897410635 L 526.0917014559535 294.20763698697766 L 525.089449605473 361.70621526925726 L 462.60760714120187 362.2109360269179 Z" fill="#E5E7EB" stroke="#374151" stroke-width="0.5"/>
<path id="house-57" d="M 526.9556653819686 293.2816125984971 L 589.509466008136 294.1997267808857 L 588.0247889540476 362.00079055337096 L 527.0787537225079 361.6048276651616 Z" fill="#E5E7EB" stroke="#374151" stroke-width="0.5"/>
<path id="house-58" d="M 590.7186741358696 294.6784100740417 L 651.8866605312764 293.45180043884136 L 651.3363803342597 362.0350687286463 L 589.2312166133534 362.28143133446855 Z" fill="#E5E7EB" stroke="#374151" stroke-width="0.5"/>
<path id="house-59" d="M 653.8109838210127 294.734006914271 L 716.4098704379956 294.5698727086362 L 715.4115119028127 360.34588118842 L 654.1165411620225 361.3237047050656 Z" fill="#E5E7EB" stroke="#374151" stroke-width="0.5"/>
<path id="house-60" d="M 715.7701109073985 293.07825610078055 L 779.3465463467415 294.4610411998084 L 779.4009937821982 361.6989932422287 L 717.4270242820204 360.8716050095899 Z" fill="#E5E7EB" stroke="#374151" stroke-width="0.5"/>
<path id="house-61" d="M 20.244692618868488 363.0605245493 L 82.63089948300829 361.632373499314 L 81.94043925705422 429.1406875733373 L 20.127264490714936 428.98899932864924 Z" fill="#E5E7EB" stroke="#374151" stroke-width="0.5"/>
<path id="house-62" d="M 83.88838664141804 362.20692420588136 L 146.48642704904432 362.4958134677935 L 145.99483335092137 430.5155472984102 L 83.56571465869673 429.59041126651914 Z" fill="#E5E7EB" stroke="#374151" stroke-width="0.5"/>
<path id="house-63" d="M 147.26997333685023 362.2377097845725 L 209.036106402421 362.2886919699751 L 209.78406503288107 429.3128290352337 L 145.73671730582308 430.41426819111325 Z" fill="#E5E7EB" stroke="#374151" stroke-width="0.5"/>
<path id="house-64" d="M 209.13466950451956 361.83495448995143 L 271.9910391219735 361.8894237657539 L 272.0555612191421 429.95986527424856 L 209.4971549433144 429.83698520309645 Z" fill="#E5E7EB" stroke="#374151" stroke-width="0.5"/>
<path id="house-65" d="M 272.96926313622924 362.1196000639433 L 334.7367753758071 361.88019835852907 L 334.8560557364469 429.32137115550506 L 273.5790887133144 429.02264999310955 Z" fill="#E5E7EB" stroke="#374151" stroke-width="0.5"/>
<path id="house-66" d="M 337.46413947619885 362.7562669828909 L 398.6339535723252 363.0342976041863 L 399.50318271755657 430.5432705824687 L 337.38724456551256 430.4489369422517 Z" fill="#E5E7EB" stroke="#374151" stroke-width="0.5"/>
<path id="house-67" d="M 399.8111663842572 361.52263283946405 L 462.56765633020456 363.2802884152862 L 462.8113887750681 429.89531254341045 L 399.93359166987716 430.5373640883501 Z" fill="#E5E7EB" stroke="#374151" stroke-width="0.5"/>
<path id="house-68" d="M 462.34127807378337 361.63647682870953 L 524.7747041776593 362.93374234167555 L 526.4338197241564 429.81937167027417 L 463.7455084713878 429.2093835380567 Z" fill="#E5E7EB" stroke="#374151" stroke-width="0.5"/>
<path id="house-69" d="M 526.6093002881087 362.6786382704218 L 588.1520032360513 362.8444320741225 L 589.9354966037256 430.6363728205284 L 526.728910749728 430.16095541975426 Z" fill="#E5E7EB" stroke="#374151" stroke-width="0.5"/>
<path id="house-70" d="M 589.2714324104384 362.53848205147705 L 651.8236379284186 361.85255223167366 L 652.7814128652769 429.928934006847 L 590.5894252980656 429.09676258383143 Z" fill="#E5E7EB" stroke="#374151" stroke-width="0.5"/>
<path id="house-71" d="M 653.8827261216906 362.9246710101444 L 716.395675058815 361.948335332498 L 716.2354400212073 429.244927393018 L 652.9950113239636 430.36053797527154 Z" fill="#E5E7EB" stroke="#374151" stroke-width="0.5"/>
<path id="house-72" d="M 717.5675940616435 361.7748068289416 L 779.4333559243677 362.2691305405744 L 778.5344682977051 430.18480675488263 L 716.6834366635612 429.4629484666037 Z" fill="#E5E7EB" stroke="#374151" stroke-width="0.5"/>
<path id="house-73" d="M 20.085930433129164 430.56400226348063 L 82.7734724662457 431.168838659178 L 82.88842085540372 498.3471150282135 L 20.108689010756642 499.06598209122376 Z" fill="#E5E7EB" stroke="#374151" stroke-width="0.5"/>
<path id="house-74" d="M 82.93818723795613 430.084738197305 L 146.59533841390567 431.07965437006476 L 146.17446237856717 499.18622986187205 L 83.89316756299117 498.02079639181056 Z" fill="#E5E7EB" stroke="#374151" stroke-width="0.5"/>
<path id="house-75" d="M 145.90313586973173 430.9863069321083 L 209.74238165337877 430.07026090983953 L 209.20641503480883 498.88591040001546 L 146.83906326991655 498.65417241478514 Z" fill="#E5E7EB" stroke="#374151" stroke-width="0.5"/>
<path id="house-76" d="M 209.02618721576744 431.1739683899247 L 271.97721060017744 431.4794846461181 L 272.2232487898456 499.0592113318443 L 210.45693783359502 497.34173092958554 Z" fill="#E5E7EB" stroke="#374151" stroke-width="0.5"/>
<path id="house-77" d="M 272.50037955852235 430.3388346538056 L 336.4822741492222 429.93997977736234 L 335.1583808531639 497.94632328577194 L 273.41247182294626 499.1663728365939 Z" fill="#E5E7EB" stroke="#374151" stroke-width="0.5"/>
<path id="house-78" d="M 336.5155918004884 431.6151754064889 L 398.9225165722145 429.99420135635836 L 399.53946630262226 498.8350923416656 L 335.94735380336823 498.2250994765902 Z" fill="#E5E7EB" stroke="#374151" stroke-width="0.5"/>
<path id="house-79" d="M 400.21027741838355 430.0734688936617 L 461.73738309712724 430.04088884740054 L 461.734989750553 498.18704424194584 L 400.81210556750244 497.2738525009766 Z" fill="#E5E7EB" stroke="#374151" stroke-width="0.5"/>
<path id="house-80" d="M 463.82157318176195 431.04305203700295 L 525.2892282246527 430.51986211513406 L 525.6901124075479 498.1378979102662 L 462.6290595817418 497.4488168788352 Z" fill="#E5E7EB" stroke="#374151" stroke-width="0.5"/>
<path id="house-81" d="M 526.4070642208475 430.9168040702128 L 589.0571480611362 430.97145409837395 L 589.873722550884 497.7438267099526 L 526.7736282442926 498.4243853591764 Z" fill="#E5E7EB" stroke="#374151" stroke-width="0.5"/>
<path id="house-82" d="M 589.1748795657284 430.2034101236062 L 653.0930145031999 429.95790314102754 L 652.4042536778646 497.9701668845767 L 590.8050611504149 498.06561039046557 Z" fill="#E5E7EB" stroke="#374151" stroke-width="0.5"/>
<path id="house-83" d="M 653.335179886579 430.1156535160685 L 714.9649873311848 430.3835719750992 L 715.9740403801543 498.7444992976548 L 652.957781712473 497.46378779137865 Z" fill="#E5E7EB" stroke="#374151" stroke-width="0.5"/>
<path id="house-84" d="M 19.571231156386123 498.93066408290815 L 81.68463504911809 498.46978222115365 L 82.03493160205285 566.3425044982947 L 19.59477671243446 567.2611245375786 Z" fill="#E5E7EB" stroke="#374151" stroke-width="0.5"/>
<path id="house-85" d="M 83.98735372855685 499.82141325650014 L 146.11886700243238 499.2878887778209 L 146.31678428039754 566.041479444015 L 83.65230672238823 567.6349693348045 Z" fill="#E5E7EB" stroke="#374151" stroke-width="0.5"/>
<path id="house-86" d="M 146.38420192437292 498.9449980402868 L 209.47529523248437 498.94045729683546 L 208.2982496738178 566.9541561261251 L 146.53127682156585 567.6576654796065 Z" fill="#E5E7EB" stroke="#374151" stroke-width="0.5"/>
<path id="house-87" d="M 210.88321979931948 499.4976362452442 L 272.8293700602098 499.685869612117 L 271.89177909773855 567.0783539543972 L 209.2135796398084 566.6303040279289 Z" fill="#E5E7EB" stroke="#374151" stroke-width="0.5"/>
<path id="house-88" d="M 272.7613648666531 499.8768571868344 L 335.7980809385627 500.2390181308721 L 336.3695333898004 566.4449640340395 L 274.21594471431104 566.8008737733819 Z" fill="#E5E7EB" stroke="#374151" stroke-width="0.5"/>
<path id="house-89" d="M 336.8999210746911 498.51697403799886 L 398.20889536237564 499.8350734743568 L 399.70006180918176 567.1772207249682 L 336.46827928953485 567.6138236801231 Z" fill="#E5E7EB" stroke="#374151" stroke-width="0.5"/>
<path id="house-90" d="M 399.17395508328883 498.5838892157121 L 463.2488103222791 498.99151696499206 L 463.0430793245557 567.0691347381354 L 399.08864056643444 566.2519959981425 Z" fill="#E5E7EB" stroke="#374151" stroke-width="0.5"/>
<path id="house-91" d="M 463.09601199438345 499.13288006016967 L 525.8997996424545 498.2768933805975 L 524.7718847362357 567.4027194460126 L 464.1749504885852 567.3506321609267 Z" fill="#E5E7EB" stroke="#374151" stroke-width="0.5"/>
<path id="house-92" d="M 525.9523944061575 498.9012705793026 L 588.8437652826859 499.6756526478152 L 589.1855104713743 566.1891658386983 L 527.256400601258 565.8612701447694 Z" fill="#E5E7EB" stroke="#374151" stroke-width="0.5"/>
<path id="house-93" d="M 589.1441361395964 499.46996346968683 L 652.5302432538884 498.61272817900806 L 651.4961082851506 566.1048758085809 L 589.0131197524845 567.1051579570764 Z" fill="#E5E7EB" stroke="#374151" stroke-width="0.5"/>
<path id="house-94" d="M 653.9351653387127 498.6190229361751 L 716.3814871069927 499.2035895759232 L 714.7634187448814 567.2472473766812 L 654.1259328109865 565.9001763173072 Z" fill="#E5E7EB" stroke="#374151" stroke-width="0.5"/>
<path id="house-95" d="M 19.542338145634673 568.1352995039376 L 82.63642398096441 567.0269942573417 L 82.88541999021567 634.3795270347745 L 20.40282330277713 635.7737229400351 Z" fill="#E5E7EB" stroke="#374151" stroke-width="0.5"/>
<path id="house-96" d="M 82.48216289212692 567.5815135593341 L 145.52552264660287 568.0594476682044 L 145.12126103885862 636.1626694700808 L 83.30685712668581 634.5576168216626 Z" fill="#E5E7EB" stroke="#374151" stroke-width="0.5"/>
<path id="house-97" d="M 147.6588519460655 568.1743265038622 L 208.34893284192523 568.3439508172535 L 208.3078751023036 635.7683484394071 L 146.166526193583 635.1387766266498 Z" fill="#E5E7EB" stroke="#374151" stroke-width="0.5"/>
<path id="house-98" d="M 210.9562322476095 567.1998571538505 L 272.5376691085199 567.8055100660889 L 272.2671317401741 634.5601872479822 L 209.17529995732275 635.1399414660683 Z" fill="#E5E7EB" stroke="#374151" stroke-width="0.5"/>
<path id="house-99" d="M 273.3884115801269 567.4565740998315 L 334.679664020314 567.4622680986295 L 334.6892962536535 634.2811041200415 L 273.3214621062669 635.1391944521818 Z" fill="#E5E7EB" stroke="#374151" stroke-width="0.5"/>
<path id="house-100" d="M 336.22387097383637 567.7491718943422 L 398.6000143378974 568.5157978775496 L 398.3483380121053 634.734352910546 L 337.1261771887571 634.2070223792681 Z" fill="#E5E7EB" stroke="#374151" stroke-width="0.5"/>
<path id="house-101" d="M 399.47640026249366 567.7638475139764 L 461.3794460448532 568.0053470318705 L 462.18853285870307 635.43478467918 L 399.1269192428039 634.9981014029207 Z" fill="#E5E7EB" stroke="#374151" stroke-width="0.5"/>
<path id="house-102" d="M 464.092513304726 567.9674322697148 L 524.7236087678415 568.0425203257295 L 526.3927429084051 635.3162919900452 L 463.1719390289919 635.7940564067558 Z" fill="#E5E7EB" stroke="#374151" stroke-width="0.5"/>
<path id="house-103" d="M 526.4885689098296 567.1510008027851 L 588.2580035899459 567.210502170327 L 589.8544750076654 636.0138909864986 L 526.9753061063756 634.8123230474054 Z" fill="#E5E7EB" stroke="#374151" stroke-width="0.5"/>
<path id="house-104" d="M 589.877791786315 567.9416426601858 L 651.6623032300216 567.7669821120053 L 651.609022112978 634.434279806711 L 590.6177713737346 635.9418992632053 Z" fill="#E5E7EB" stroke="#374151" stroke-width="0.5"/>
<path id="house-105" d="M 652.5880488220881 568.3197954040232 L 716.2905067941062 567.1055433995617 L 714.8681482415484 634.7976921272797 L 653.5723111938688 634.5621952499234 Z" fill="#E5E7EB" stroke="#374151" stroke-width="0.5"/>
<path id="house-106" d="M 20.737957103874617 635.3418573576996 L 81.69340138847896 637.1875292203854 L 81.51892593225898 704.5643069203302 L 19.197177644913396 704.070639613174 Z" fill="#E5E7EB" stroke="#374151" stroke-width="0.5"/>
<path id="house-107" d="M 83.69457992356485 637.0499169212379 L 145.74801455744333 635.2584829765136 L 146.1896433779623 704.5349580844182 L 83.06996817230593 703.0406323162426 Z" fill="#E5E7EB" stroke="#374151" stroke-width="0.5"/>
<path id="house-108" d="M 147.30634100281034 636.566528347909 L 208.15407405485968 636.9991104974491 L 208.1555542704618 703.1794522690386 L 146.00277427208917 703.7346466898432 Z" fill="#E5E7EB" stroke="#374151" stroke-width="0.5"/>
<path id="house-109" d="M 209.22084587807694 636.3853921444185 L 273.2156142745149 635.245991035845 L 271.8373074633026 704.0549201066534 L 209.39551657770156 702.9516676236648 Z" fill="#E5E7EB" stroke="#374151" stroke-width="0.5"/>
<path id="house-110" d="M 273.1588477685808 635.3915686925274 L 336.35439403711314 637.1259119536948 L 336.65275275278657 703.4163234252021 L 274.207906875366 703.9727739708716 Z" fill="#E5E7EB" stroke="#374151" stroke-width="0.5"/>
<path id="house-111" d="M 336.6121302607293 636.640043259156 L 398.0979537496986 636.7159152660752 L 399.0832558312995 703.1735727069262 L 335.94931616733993 703.4276279661107 Z" fill="#E5E7EB" stroke="#374151" stroke-width="0.5"/>
<path id="house-112" d="M 400.3223326020267 636.8911671314058 L 462.7293071978883 636.9498776215822 L 461.7550992201949 703.4070642883214 L 399.17303859919457 704.2754080739799 Z" fill="#E5E7EB" stroke="#374151" stroke-width="0.5"/>
<path id="house-113" d="M 463.3819896460501 636.6973027598711 L 526.6175092261532 636.344303758083 L 524.896335632842 703.0754359718202 L 463.3965136916029 703.6219755268459 Z" fill="#E5E7EB" stroke="#374151" stroke-width="0.5"/>
<path id="house-114" d="M 525.7615608359899 636.2517389634539 L 588.5357596410091 635.9198051495301 L 589.971358512427 704.3518660389158 L 526.4441285012758 704.2942898413662 Z" fill="#E5E7EB" stroke="#374151" stroke-width="0.5"/>
<path id="house-115" d="M 590.4595315540487 635.304387141621 L 652.7057565278228 636.5202853296255 L 653.0323076727537 703.8735856028478 L 590.8610858146112 703.184215516922 Z" fill="#E5E7EB" stroke="#374151" stroke-width="0.5"/>
<path id="house-116" d="M 652.5503771427489 635.7716750778796 L 714.9866688593611 636.8638240116934 L 716.0287132235417 704.5762553749871 L 652.5606428649919 704.2670971903506 Z" fill="#E5E7EB" stroke="#374151" stroke-width="0.5"/>
<path id="house-117" d="M 19.108103957102283 704.2436974528088 L 82.24147952118737 704.0490578932034 L 82.92967435524831 771.2693296580966 L 19.02674600325082 771.4657818685016 Z" fill="#E5E7EB" stroke="#374151" stroke-width="0.5"/>
<path id="house-118" d="M 84.25772671870315 703.7872258409477 L 146.50735777366916 704.2903238142057 L 145.55153763267217 772.923418138389 L 83.82326567188173 771.2132734900397 Z" fill="#E5E7EB" stroke="#374151" stroke-width="0.5"/>
<path id="house-119" d="M 147.2975225525251 704.7962518011136 L 208.78995469697387 704.2852064122632 L 209.73101305181885 771.470455469693 L 145.75234953213482 771.1583062814744 Z" fill="#E5E7EB" stroke="#374151" stroke-width="0.5"/>
<path id="house-120" d="M 209.5352707628852 705.4473686954385 L 272.21254543702867 704.8379980783981 L 272.49628657762224 771.604780381511 L 210.6650615908554 771.5163715789399 Z" fill="#E5E7EB" stroke="#374151" stroke-width="0.5"/>
<path id="house-121" d="M 273.04163696233974 705.0879546487006 L 336.56727737810024 703.7275066189941 L 334.9576638903104 772.5927117175983 L 272.77085566267783 773.0918521890608 Z" fill="#E5E7EB" stroke="#374151" stroke-width="0.5"/>
<path id="house-122" d="M 336.7224089952565 704.7117945281766 L 398.8462725716764 705.2685915970148 L 398.904018836969 771.2123227689067 L 335.9000637672148 771.2877584812819 Z" fill="#E5E7EB" stroke="#374151" stroke-width="0.5"/>
<path id="house-123" d="M 400.7098869874838 703.8188725756969 L 461.66231256078305 704.6545166836439 L 462.9584362150587 772.1208380093918 L 400.27174283254857 771.5420099360987 Z" fill="#E5E7EB" stroke="#374151" stroke-width="0.5"/>
<path id="house-124" d="M 464.13916582517976 704.0749496387566 L 526.1309917147269 704.7147490267706 L 525.8951087697634 772.8557709007707 L 463.3085273680468 772.5285266887174 Z" fill="#E5E7EB" stroke="#374151" stroke-width="0.5"/>
<path id="house-125" d="M 526.735172257922 703.9124776868358 L 589.9126208754134 704.1242679319088 L 589.747401015749 771.2345260254386 L 526.3205900598161 772.8441746367804 Z" fill="#E5E7EB" stroke="#374151" stroke-width="0.5"/>
<path id="house-126" d="M 590.4556706427692 704.7174035473571 L 652.863163073845 704.7100099127794 L 651.7698668903417 772.5009950752585 L 589.4368066033597 773.0312359207948 Z" fill="#E5E7EB" stroke="#374151" stroke-width="0.5"/>
<path id="house-127" d="M 653.9340459036908 704.0071706550212 L 715.9912528932643 705.2279648635746 L 715.8438662622558 772.0139738715612 L 654.2718685749443 772.0886760906811 Z" fill="#E5E7EB" stroke="#374151" stroke-width="0.5"/>
<path id="house-128" d="M 20.051720862247024 773.8431250290776 L 82.5313749559694 773.4936710504306 L 81.90791698185193 840.3541645831533 L 20.624128556697183 839.7245636051567 Z" fill="#E5E7EB" stroke="#374151" stroke-width="0.5"/>
<path id="house-129" d="M 82.68888432057214 772.827634814393 L 145.8975538196848 773.1610347771829 L 146.4732534027531 840.8044823156677 L 82.53932445928848 840.2874756436405 Z" fill="#E5E7EB" stroke="#374151" stroke-width="0.5"/>
<path id="house-130" d="M 146.44691034514344 772.8927986301662 L 208.6295150094479 772.7234237219322 L 209.54601499342328 840.0256524369713 L 145.99607861448362 839.9833196584656 Z" fill="#E5E7EB" stroke="#374151" stroke-width="0.5"/>
<path id="house-131" d="M 210.74562997025518 772.6560309427457 L 273.10977407199425 773.920989705121 L 272.11440413596205 841.1763333578899 L 210.3538563320911 840.1023985251347 Z" fill="#E5E7EB" stroke="#374151" stroke-width="0.5"/>
<path id="house-132" d="M 272.9592027835863 772.2919582246387 L 335.45230812908665 772.5449516297901 L 336.50260052600953 841.2223299670707 L 273.4977221542034 840.6511057043068 Z" fill="#E5E7EB" stroke="#374151" stroke-width="0.5"/>
<path id="house-133" d="M 336.0164892468076 772.1426249034886 L 399.2712017439776 772.9519973582061 L 398.86003771835595 840.9962601911222 L 337.33648936798426 841.4792087059037 Z" fill="#E5E7EB" stroke="#374151" stroke-width="0.5"/>
<path id="house-134" d="M 400.7479367205282 773.2030785534353 L 462.2218655312886 773.9095784747733 L 461.6313486193241 839.806281631364 L 400.496882084626 839.9961907842041 Z" fill="#E5E7EB" stroke="#374151" stroke-width="0.5"/>
<path id="house-135" d="M 463.2279645498772 773.9245038429069 L 526.3585922662234 772.6398444227301 L 525.6260751608812 841.5480039507637 L 463.81581177158535 839.9146906912953 Z" fill="#E5E7EB" stroke="#374151" stroke-width="0.5"/>
<path id="house-136" d="M 527.5334256050496 772.5965710939109 L 588.0528776231166 772.9265291398079 L 589.6911322429842 840.7961284027588 L 527.6070972417667 839.7733146825196 Z" fill="#E5E7EB" stroke="#374151" stroke-width="0.5"/>
<path id="house-137" d="M 589.8191355528186 773.9792163625684 L 652.0031648040425 774.0935101021611 L 652.6696256042025 839.7382661465257 L 589.4284259196716 840.2442371505048 Z" fill="#E5E7EB" stroke="#374151" stroke-width="0.5"/>
<path id="house-138" d="M 20.40123983470795 841.9856502328454 L 82.09573667580331 842.0268020153233 L 82.34284702999183 909.108163348506 L 20.471990518338554 909.4556927207839 Z" fill="#E5E7EB" stroke="#374151" stroke-width="0.5"/>
<path id="house-139" d="M 84.01130013236077 842.4152474307797 L 145.97440392212988 840.7205611828164 L 145.68666740243864 908.9107241986203 L 82.94150590216654 908.6216425105238 Z" fill="#E5E7EB" stroke="#374151" stroke-width="0.5"/>
<path id="house-140" d="M 146.71097188642605 842.3919469252097 L 208.8895208995625 840.933423076345 L 208.67222667996936 908.7469490617283 L 147.2476333286052 909.0119147691588 Z" fill="#E5E7EB" stroke="#374151" stroke-width="0.5"/>
<path id="house-141" d="M 210.195829909005 841.4829564013643 L 272.61211839417365 841.8880531460579 L 272.55854438335416 909.1639764241341 L 210.14634764391167 910.0348952202114 Z" fill="#E5E7EB" stroke="#374151" stroke-width="0.5"/>
<path id="house-142" d="M 273.2870775243152 840.7103664784264 L 334.82849455920757 842.3397956290776 L 336.4134530427263 909.8537567051707 L 272.7465399253392 909.7774043818135 Z" fill="#E5E7EB" stroke="#374151" stroke-width="0.5"/>
<path id="house-143" d="M 336.8886800480161 841.6637252510246 L 399.81408643391194 842.4826464571807 L 399.0775703351416 909.8467027834399 L 337.2008357877681 908.2505653987854 Z" fill="#E5E7EB" stroke="#374151" stroke-width="0.5"/>
<path id="house-144" d="M 400.6543102265214 841.4619629536884 L 463.2034956592067 841.8443986222989 L 461.4265274564762 909.3230167559601 L 399.2191044606373 908.1598684745628 Z" fill="#E5E7EB" stroke="#374151" stroke-width="0.5"/>
<path id="house-145" d="M 463.0646232663014 842.5161390393883 L 526.0795885982762 840.818732679619 L 525.9098841796477 908.8974943634045 L 464.27822146087607 909.6615525808454 Z" fill="#E5E7EB" stroke="#374151" stroke-width="0.5"/>
<path id="house-146" d="M 526.8842237831359 841.4015857202978 L 589.0601526451716 841.3561010140301 L 589.7220583512424 909.7114156954386 L 526.2908131887451 909.5343600316057 Z" fill="#E5E7EB" stroke="#374151" stroke-width="0.5"/>
<path id="house-147" d="M 590.5152817273549 841.8871727635341 L 652.2864018549376 841.2187466551176 L 652.9969335119941 909.6331237773645 L 589.1356210831344 909.6803911585287 Z" fill="#E5E7EB" stroke="#374151" stroke-width="0.5"/>
<path id="house-148" d="M 19.08360191190727 909.9150025667045 L 82.91756820889184 910.9241651444496 L 82.79286669491806 977.7199046342464 L 20.286600717922497 976.912654673584 Z" fill="#E5E7EB" stroke="#374151" stroke-width="0.5"/>
<path id="house-149" d="M 83.42928395955799 910.0677758465964 L 146.35902750456333 909.9442130151893 L 144.92360691991672 978.2880198529884 L 82.72265750823539 978.387798873903 Z" fill="#E5E7EB" stroke="#374151" stroke-width="0.5"/>
<path id="house-150" d="M 146.53355082604244 909.1828245685737 L 209.89657940242392 910.6408258617429 L 208.50071441723557 976.8132647991881 L 145.76859810340898 976.9536555383529 Z" fill="#E5E7EB" stroke="#374151" stroke-width="0.5"/>
<path id="house-151" d="M 210.37536688443384 910.3758634473908 L 272.793263437774 910.422347297019 L 272.37626478773046 976.7417832207594 L 210.45794085161916 976.8494259513991 Z" fill="#E5E7EB" stroke="#374151" stroke-width="0.5"/>
<path id="house-152" d="M 273.12917478060797 909.8371804834454 L 334.67463176059294 910.2928820285812 L 335.5893129320584 976.6628766326306 L 272.7484351778585 976.5778494497304 Z" fill="#E5E7EB" stroke="#374151" stroke-width="0.5"/>
<path id="house-153" d="M 337.5372358659846 909.9036006389686 L 399.6533921583775 909.1790330364781 L 398.79527824376277 976.8709994281649 L 336.7462640846415 977.3640923327791 Z" fill="#E5E7EB" stroke="#374151" stroke-width="0.5"/>
<path id="house-154" d="M 399.6094838812917 910.0924644278016 L 461.7674885543023 910.7117258706801 L 462.9628557068527 976.6596475134742 L 399.95865266960163 976.8700695965902 Z" fill="#E5E7EB" stroke="#374151" stroke-width="0.5"/>
<path id="house-155" d="M 463.74531727509066 909.7057199652273 L 526.002410406454 909.2640862825391 L 526.1378678629093 976.7455401126017 L 463.88944475881215 977.1289531461525 Z" fill="#E5E7EB" stroke="#374151" stroke-width="0.5"/>
<path id="house-156" d="M 527.6653530890546 910.5500267320153 L 589.9910356372718 909.8654447584369 L 589.7814756602866 977.2718138684364 L 527.5841662833548 977.7739795067945 Z" fill="#E5E7EB" stroke="#374151" stroke-width="0.5"/>
<path id="house-157" d="M 590.1287105044048 909.8963581703574 L 653.2413552736617 911.0571498023545 L 651.9133829084548 977.717820947569 L 590.3490396598913 977.2659891928554 Z" fill="#E5E7EB" stroke="#374151" stroke-width="0.5"/>
<path id="house-158" d="M 19.30381318138778 979.0744535629992 L 82.67277565426758 978.4481072996603 L 82.77008193623574 1046.7307515437462 L 19.050035577301987 1045.0549196870165 Z" fill="#E5E7EB" stroke="#374151" stroke-width="0.5"/>
<path id="house-159" d="M 82.61912322267304 978.9304669429267 L 144.95359787126137 979.0889819744715 L 145.59502631436055 1045.4213801660974 L 84.22872019464903 1045.475619311978 Z" fill="#E5E7EB" stroke="#374151" stroke-width="0.5"/>
<path id="house-160" d="M 147.12078669577227 978.6936991702867 L 209.58070633276213 978.5637228482657 L 208.88890176307527 1045.8807641291965 L 147.53004446126187 1046.6085053271236 Z" fill="#E5E7EB" stroke="#374151" stroke-width="0.5"/>
<path id="house-161" d="M 210.12890450947194 979.118237668083 L 271.45192519845045 978.0035896560993 L 272.0867206238001 1045.3210044999473 L 209.50261712929097 1046.896877672115 Z" fill="#E5E7EB" stroke="#374151" stroke-width="0.5"/>
<path id="house-162" d="M 273.9051560917773 978.5692014410631 L 335.3778225791604 978.7999085483074 L 334.94450939185793 1045.3457042405469 L 272.61873471800106 1046.973615873923 Z" fill="#E5E7EB" stroke="#374151" stroke-width="0.5"/>
<path id="house-163" d="M 337.13930608245965 979.226570779917 L 399.70328324919114 979.1302895405761 L 399.1032406346452 1045.5258314628795 L 336.4093375766021 1045.6429456007231 Z" fill="#E5E7EB" stroke="#374151" stroke-width="0.5"/>
<path id="house-164" d="M 399.06833720764774 977.5724204798091 L 462.66016125097036 978.1421890290121 L 461.7527256374402 1045.3580983482182 L 399.3361380579811 1046.5152391857841 Z" fill="#E5E7EB" stroke="#374151" stroke-width="0.5"/>
<path id="house-165" d="M 464.3046256117388 978.8867463346061 L 526.1745153023861 977.5969575701586 L 525.0965258262975 1046.0538675130972 L 464.13768140637467 1046.1677598854615 Z" fill="#E5E7EB" stroke="#374151" stroke-width="0.5"/>
<path id="house-166" d="M 527.28058538564 978.7635707638387 L 588.439299922285 979.2463375629289 L 589.9730773269731 1045.7285648533725 L 526.166360684571 1045.725114642078 Z" fill="#E5E7EB" stroke="#374151" stroke-width="0.5"/>
<path id="house-167" d="M 589.3143854846355 978.0056746937162 L 651.847841183569 978.1327050507275 L 651.6126533783715 1046.3556038765116 L 589.1859103679271 1046.0816934557922 Z" fill="#E5E7EB" stroke="#374151" stroke-width="0.5"/>
<path id="house-168" d="M 716.5240210543168 430.6572851516758 L 778.2546718424396 431.2450282955808 L 779.1254668313804 498.33192341188516 L 716.4415331242143 498.83141832454675 Z" fill="#E5E7EB" stroke="#374151" stroke-width="0.5"/>
<path id="house-169" d="M 716.5325122926077 500.0986455361886 L 778.5729836951853 499.2644486256754 L 779.6232511933432 566.2776159986739 L 716.7637390351587 565.925181091038 Z" fill="#E5E7EB" stroke="#374151" stroke-width="0.5"/>
<path id="house-170" d="M 717.4291556180926 567.500337490961 L 779.2926850679905 567.427995576175 L 779.3659029782633 636.1233150482763 L 716.0674667566866 634.725085812741 Z" fill="#E5E7EB" stroke="#374151" stroke-width="0.5"/>
<path id="house-171" d="M 717.1990164211385 636.2389132536124 L 779.0914635168526 635.3863818397591 L 778.9808194356939 703.387091607851 L 715.8109385654852 704.4739719217148 Z" fill="#E5E7EB" stroke="#374151" stroke-width="0.5"/>
<path id="house-172" d="M 716.4040990676176 704.0279036180269 L 778.3161247597885 704.9756904360274 L 779.3247793078583 771.7633561857562 L 715.7374648106199 772.8489868740813 Z" fill="#E5E7EB" stroke="#374151" stroke-width="0.5"/>
<path id="house-173" d="M 652.4002652609253 773.0591786336819 L 715.3058218607019 772.5339001683192 L 716.2868836751007 839.7989669551304 L 652.7600882555155 840.7148981166652 Z" fill="#E5E7EB" stroke="#374151" stroke-width="0.5"/>
<path id="house-174" d="M 653.4969972392392 841.8011369503776 L 715.5276415479709 842.1650284884909 L 715.4566608501011 909.263726108451 L 652.4079185230698 909.0673974351041 Z" fill="#E5E7EB" stroke="#374151" stroke-width="0.5"/>
<path id="house-175" d="M 652.9731611923916 909.502454879549 L 716.2401176336557 911.0024665125432 L 716.5095590352724 977.6491958397723 L 653.0654364953231 977.1773237317734 Z" fill="#E5E7EB" stroke="#374151" stroke-width="0.5"/>
<path id="house-176" d="M 653.6892633360482 978.1754164248159 L 715.9033260462645 979.3249324069785 L 716.5231893671667 1045.9389525510999 L 654.2553102307844 1046.6200988902272 Z" fill="#E5E7EB" stroke="#374151" stroke-width="0.5"/>
<path id="house-177" d="M 525.8256275278387 978.4513637578638 L 588.8541104910315 978.3677088210817 L 589.0831915263323 1046.0273533797988 L 527.5534805388306 1045.1924491921723 Z" fill="#E5E7EB" stroke="#374151" stroke-width="0.5"/>
<path id="house-178" d="M 716.7753999377253 774.0918221403259 L 778.6114419037722 773.3954717199464 L 778.7395488483874 841.0032538651733 L 716.8811104604446 839.7916306469665 Z" fill="#E5E7EB" stroke="#374151" stroke-width="0.5"/>
<path id="house-179" d="M 716.659135736203 841.6478164866237 L 779.4574409160813 842.1289831153573 L 778.4180002927095 909.1356300741148 L 716.6448999448287 908.4218399793305 Z" fill="#E5E7EB" stroke="#374151" stroke-width="0.5"/>
<path id="house-180" d="M 717.1296860181596 910.3840514447894 L 778.4951548990979 909.7905318882958 L 779.8160482753988 977.4922816609595 L 716.2743018956055 976.7773051954736 Z" fill="#E5E7EB" stroke="#374151" stroke-width="0.5"/>
</g>
</svg>