<?xml version="1.0"?>
<svg xmlns="http://www.w3.org/2000/svg" version="1.2" baseProfile="tiny" width="800" height="1067" viewBox="0 0 800 1067" stroke-linecap="round" stroke-linejoin="round">
<g id="ga_senate_districts">
<path id="senate-1" d="M 20.416585184335492 20.86376888016636 L 127.32835206372661 20.655832616260135 L 128.3005110200777 148.00970122182167 L 19.05890465890581 146.52691287340113 Z" fill="#E5E7EB" stroke="#374151" stroke-width="0.5"/>
<path id="senate-2" d="M 128.2545035855406 19.07044656305026 L 236.47490960179326 19.429692406690005 L 235.38937134593155 147.772404337607 L 127.99411457763722 147.043495850018 Z" fill="#E5E7EB" stroke="#374151" stroke-width="0.5"/>
<path id="senate-3" d="M 236.70907649613451 20.70946602370939 L 345.273896637191 20.923593501876407 L 345.18591975746085 146.39982039602086 L 236.6916034840522 148.03762282594448 Z" fill="#E5E7EB" stroke="#374151" stroke-width="0.5"/>
<path id="senate-4" d="M 346.1852742697644 19.82436943157991 L 453.42684789947293 19.20036480035075 L 453.7376479550393 146.8689393096294 L 345.6491211345432 147.2998326410926 Z" fill="#E5E7EB" stroke="#374151" stroke-width="0.5"/>
<path id="senate-5" d="M 453.95556685956814 19.715431802258617 L 562.5455047013755 19.424174001223687 L 562.729499750632 146.47564883995918 L 453.30266510291244 148.19360134569644 Z" fill="#E5E7EB" stroke="#374151" stroke-width="0.5"/>
<path id="senate-6" d="M 562.3787792613857 19.21118085181199 L 670.3842232217997 19.91102220656975 L 671.0156349254249 147.49906139108458 L 562.6239158788079 147.28150405902315 Z" fill="#E5E7EB" stroke="#374151" stroke-width="0.5"/>
<path id="senate-7" d="M 671.7489129552666 20.128405643071666 L 778.6615823337409 19.007950013291545 L 778.3627983293054 147.12495242109722 L 671.4140579505756 146.4175567968361 Z" fill="#E5E7EB" stroke="#374151" stroke-width="0.5"/>
<path id="senate-8" d="M 19.575270938645808 149.31389253306222 L 127.9900491616469 147.85130201402237 L 126.81178205851691 275.1997123022035 L 20.046107205289672 276.6555794026813 Z" fill="#E5E7EB" stroke="#374151" stroke-width="0.5"/>
<path id="senate-9" d="M 128.4691563038745 148.48387457144193 L 236.92063412599228 147.44233999307846 L 235.5990259895041 275.9391223590649 L 128.08944654899443 275.17967889878713 Z" fill="#E5E7EB" stroke="#374151" stroke-width="0.5"/>
<path id="senate-10" d="M 237.23996311612663 149.11286864138822 L 345.48780324946017 147.8961790797949 L 344.5802722546739 276.4168810781015 L 237.18369115133558 275.442928322444 Z" fill="#E5E7EB" stroke="#374151" stroke-width="0.5"/>
<path id="senate-11" d="M 345.1748023367323 148.1163934339936 L 452.62327119840506 147.73569592459387 L 454.1052845718918 276.0034047128978 L 345.5321897398095 274.9851197812478 Z" fill="#E5E7EB" stroke="#374151" stroke-width="0.5"/>
<path id="senate-12" d="M 454.7793553730591 148.51036624646883 L 561.7074167668081 148.35128104820913 L 561.2018918868822 275.0467804569442 L 455.2659198110492 275.9543405200093 Z" fill="#E5E7EB" stroke="#374151" stroke-width="0.5"/>
<path id="senate-13" d="M 562.2732951724327 148.72883820735086 L 670.668751927203 147.48422890720943 L 670.6480471889963 274.79727663833773 L 562.9294487929126 275.8706536295273 Z" fill="#E5E7EB" stroke="#374151" stroke-width="0.5"/>
<path id="senate-14" d="M 670.7870965071583 148.15862769525862 L 778.6089470426962 149.13012523307393 L 779.7666023517608 274.7745063320215 L 672.2110721772525 275.67543877800676 Z" fill="#E5E7EB" stroke="#374151" stroke-width="0.5"/>
<path id="senate-15" d="M 20.598279802856677 277.0137515320763 L 127.73490002592983 277.70629544489844 L 127.67771149393278 404.8131443708277 L 20.422876808498724 404.6251804066708 Z" fill="#E5E7EB" stroke="#374151" stroke-width="0.5"/>
<path id="senate-16" d="M 128.8732335465859 277.1827654407845 L 235.98876447105602 277.5513084509412 L 235.20897431277905 403.8309728398268 L 129.07237809037602 405.028989890561 Z" fill="#E5E7EB" stroke="#374151" stroke-width="0.5"/>
<path id="senate-17" d="M 236.28223453055574 276.690950298753 L 344.9032984667522 277.4753738014038 L 344.1693560896014 403.35602330738374 L 236.6122516140937 404.2858342426519 Z" fill="#E5E7EB" stroke="#374151" stroke-width="0.5"/>
<path id="senate-18" d="M 345.2034213578422 276.0739175113694 L 452.38444940521623 276.7518319244607 L 453.42273037077314 403.1284310983242 L 346.5716645512654 404.6009307663399 Z" fill="#E5E7EB" stroke="#374151" stroke-width="0.5"/>
<path id="senate-19" d="M 453.5304718174496 277.23712106470475 L 561.3953799277256 276.19380396832963 L 561.8956352915939 404.5336699564244 L 454.1580846173054 403.6560169683022 Z" fill="#E5E7EB" stroke="#374151" stroke-width="0.5"/>
<path id="senate-20" d="M 562.4636264078301 276.51991162899293 L 670.8634232170364 276.36648216452807 L 670.0303181556134 405.0194680556416 L 562.8254100041487 403.40650145478764 Z" fill="#E5E7EB" stroke="#374151" stroke-width="0.5"/>
<path id="senate-21" d="M 671.0266051133007 277.66845121704534 L 778.2367979654106 276.53764809581287 L 778.8111603532849 404.7847916702219 L 671.2954851917639 404.62671243653784 Z" fill="#E5E7EB" stroke="#374151" stroke-width="0.5"/>
<path id="senate-22" d="M 19.716989030163063 405.4510081282523 L 127.56264297774337 404.1715032632092 L 126.71220029672817 533.4254939272123 L 20.630882312263246 533.4370202583013 Z" fill="#E5E7EB" stroke="#374151" stroke-width="0.5"/>
<path id="senate-23" d="M 128.91778580841589 405.5748979767787 L 235.80610574250386 404.2426614486499 L 235.4413561290288 533.1446235140088 L 128.5157446125353 531.9212385711405 Z" fill="#E5E7EB" stroke="#374151" stroke-width="0.5"/>
<path id="senate-24" d="M 236.3184303384697 404.546568652993 L 345.64856559207533 404.9516638924395 L 345.4427584867792 532.6016133371139 L 238.13476537906658 533.271419422041 Z" fill="#E5E7EB" stroke="#374151" stroke-width="0.5"/>
<path id="senate-25" d="M 346.12496807292723 404.8017153746417 L 453.14462235782605 404.17380505550335 L 453.08717647161046 533.4694360762338 L 345.45560960667603 532.6059465850492 Z" fill="#E5E7EB" stroke="#374151" stroke-width="0.5"/>
<path id="senate-26" d="M 453.669181455633 404.2479912518926 L 560.9926504854175 404.9950355158476 L 562.3156408030213 533.387307201041 L 454.49520573414753 531.672177431443 Z" fill="#E5E7EB" stroke="#374151" stroke-width="0.5"/>
<path id="senate-27" d="M 562.1071553571446 404.37494443848385 L 669.5915505947216 405.15201056780546 L 669.6091199779316 532.8049757959092 L 562.4981285566255 533.4054632251095 Z" fill="#E5E7EB" stroke="#374151" stroke-width="0.5"/>
<path id="senate-28" d="M 670.4906846299295 405.2422298147156 L 779.4040060595291 404.47450353209405 L 778.5965072692521 532.5564491524104 L 671.7019005464888 532.9407745876182 Z" fill="#E5E7EB" stroke="#374151" stroke-width="0.5"/>
<path id="senate-29" d="M 20.626277397149934 532.6980908970351 L 126.91366506303568 533.930217152011 L 127.28568575929236 660.8530582350683 L 19.18480067139302 660.6938393137862 Z" fill="#E5E7EB" stroke="#374151" stroke-width="0.5"/>
<path id="senate-30" d="M 129.44494359681866 532.5046078037351 L 235.32617432002647 534.0628175436668 L 235.84403939533968 661.3760658073319 L 127.6418580314618 660.5856043285031 Z" fill="#E5E7EB" stroke="#374151" stroke-width="0.5"/>
<path id="senate-31" d="M 237.61621861953796 533.0558125090561 L 344.2670095365137 534.1355833567275 L 345.1927274694301 661.3955043991756 L 238.08062310592348 661.0038723153181 Z" fill="#E5E7EB" stroke="#374151" stroke-width="0.5"/>
<path id="senate-32" d="M 344.7219295112989 533.2375602265113 L 453.3051487051125 534.0452933552181 L 452.41454670772663 661.5964267346077 L 345.47906305968843 660.1221825201665 Z" fill="#E5E7EB" stroke="#374151" stroke-width="0.5"/>
<path id="senate-33" d="M 454.81615765385277 532.6066185998643 L 561.7841168490804 534.1685187058192 L 561.0987332954123 660.4027875745106 L 454.8526015656177 661.5768693264976 Z" fill="#E5E7EB" stroke="#374151" stroke-width="0.5"/>
<path id="senate-34" d="M 563.4101387396693 532.6813101844579 L 669.8613805193794 533.4279239984071 L 670.705218730695 661.1824875948539 L 562.0158209273102 660.7933244170842 Z" fill="#E5E7EB" stroke="#374151" stroke-width="0.5"/>
<path id="senate-35" d="M 671.7157535158921 534.2281606618054 L 778.1182354603237 533.1626843277071 L 778.212748349455 661.4352301437037 L 672.1578249607855 661.417545050032 Z" fill="#E5E7EB" stroke="#374151" stroke-width="0.5"/>
<path id="senate-36" d="M 19.135656604045117 662.6036415187824 L 128.02271761971105 661.6262316747437 L 128.2784393207657 788.8842565822125 L 19.878518100024046 790.1053630822591 Z" fill="#E5E7EB" stroke="#374151" stroke-width="0.5"/>
<path id="senate-37" d="M 128.49534608411963 661.2265135569044 L 236.45109850813387 661.4916946342183 L 236.56153765804305 789.3287032706795 L 128.98677365412732 789.8497552759807 Z" fill="#E5E7EB" stroke="#374151" stroke-width="0.5"/>
<path id="senate-38" d="M 236.69485104869025 662.4859021346246 L 345.11939565187714 662.106367081833 L 344.42828890947027 789.1123944899138 L 236.90486302758123 789.1459361289366 Z" fill="#E5E7EB" stroke="#374151" stroke-width="0.5"/>
<path id="senate-39" d="M 345.35018031297096 661.2758667622893 L 454.2528891974957 661.6479341186791 L 453.153109677538 789.7163917332507 L 346.0206334304288 788.407155760191 Z" fill="#E5E7EB" stroke="#374151" stroke-width="0.5"/>
<path id="senate-40" d="M 454.9058916704509 661.602425938823 L 560.9423514152344 660.9500456735819 L 561.0697712443066 788.9103902039781 L 454.824866798689 789.8814259183982 Z" fill="#E5E7EB" stroke="#374151" stroke-width="0.5"/>
<path id="senate-41" d="M 561.912951657375 661.733423644759 L 671.3664311005169 662.0932321679005 L 671.3320561458214 789.7855512320773 L 562.9302359719806 788.4485674693619 Z" fill="#E5E7EB" stroke="#374151" stroke-width="0.5"/>
<path id="senate-42" d="M 672.2613709774688 662.1291137518899 L 779.4271814792379 661.0539805896258 L 779.308131939927 789.7241506699089 L 671.4871216939516 789.8337571485571 Z" fill="#E5E7EB" stroke="#374151" stroke-width="0.5"/>
<path id="senate-43" d="M 20.045892420685448 791.0228260999947 L 127.97744488098635 790.504773841763 L 127.59519999195271 917.0675733342675 L 19.14856997938758 916.8667579193846 Z" fill="#E5E7EB" stroke="#374151" stroke-width="0.5"/>
<path id="senate-44" d="M 128.2697056468128 791.0958177259423 L 235.1497886170625 790.2207752623464 L 236.48493984392803 918.1590743249686 L 128.95969844118187 918.1022793734195 Z" fill="#E5E7EB" stroke="#374151" stroke-width="0.5"/>
<path id="senate-45" d="M 237.07907528111866 790.0096151046235 L 344.3719724868162 791.1767017278261 L 345.1606880512908 917.2919371378504 L 237.89970620512824 917.4662761372198 Z" fill="#E5E7EB" stroke="#374151" stroke-width="0.5"/>
<path id="senate-46" d="M 346.31896607938614 789.5036636653261 L 453.2966592300294 789.9768102132617 L 452.6848086135159 916.8039666348698 L 346.3296597832241 918.1484420552614 Z" fill="#E5E7EB" stroke="#374151" stroke-width="0.5"/>
<path id="senate-47" d="M 453.74436754894384 790.1880749479448 L 561.3841199210715 790.0710647874278 L 561.8646508170958 917.7573095494929 L 455.07251895123295 918.1352280872765 Z" fill="#E5E7EB" stroke="#374151" stroke-width="0.5"/>
<path id="senate-48" d="M 562.8791938703765 789.753236059069 L 670.9116190325956 789.8331529415235 L 670.3791523969642 918.4782783670244 L 563.3725991363539 918.4944500360015 Z" fill="#E5E7EB" stroke="#374151" stroke-width="0.5"/>
<path id="senate-49" d="M 671.7689729636177 791.012398158484 L 779.9132224906947 790.1845110384029 L 778.5564526955272 918.2723893844319 L 671.1322051690742 917.9711265903921 Z" fill="#E5E7EB" stroke="#374151" stroke-width="0.5"/>
<path id="senate-50" d="M 19.598343069474847 919.5282526195764 L 127.38109779099779 919.0393846344239 L 127.36186286443062 1046.0818818457085 L 19.080888723070778 1045.6629106597813 Z" fill="#E5E7EB" stroke="#374151" stroke-width="0.5"/>
<path id="senate-51" d="M 129.03543559118475 917.949584339243 L 235.67215516634948 918.195109638104 L 236.82274559642366 1046.6961899463904 L 128.43707621601834 1045.1631344884536 Z" fill="#E5E7EB" stroke="#374151" stroke-width="0.5"/>
<path id="senate-52" d="M 237.67260146423035 918.3264821906541 L 344.47613082194505 919.3198461241504 L 343.8397662855653 1045.3754565650074 L 237.44862814273594 1045.7937276239604 Z" fill="#E5E7EB" stroke="#374151" stroke-width="0.5"/>
<path id="senate-53" d="M 346.11977144990175 919.4313414555816 L 453.7064267278845 918.8757483837816 L 453.9409249652153 1045.9550929158183 L 345.222416481289 1046.3177215046055 Z" fill="#E5E7EB" stroke="#374151" stroke-width="0.5"/>
<path id="senate-54" d="M 453.42972697139754 919.5592151408204 L 561.3016647286446 918.7823232070697 L 562.5890195744822 1045.5019013972028 L 454.9274697024313 1045.5085463104879 Z" fill="#E5E7EB" stroke="#374151" stroke-width="0.5"/>
<path id="senate-55" d="M 563.49564051012 918.1818339451142 L 669.7150191196843 918.6330237117759 L 669.8337069618475 1045.7931606391048 L 561.981148973449 1045.626869732879 Z" fill="#E5E7EB" stroke="#374151" stroke-width="0.5"/>
<path id="senate-56" d="M 671.3163893313166 918.7855598228795 L 778.2685586877976 919.614842243836 L 779.1780420039777 1046.8989061372936 L 671.4848737105469 1046.2985438872606 Z" fill="#E5E7EB" stroke="#374151" stroke-width="0.5"/>
</g>
</svg>