<?xml version="1.0"?>
<svg xmlns="http://www.w3.org/2000/svg" version="1.2" baseProfile="tiny" width="800" height="320" viewBox="0 0 800 320" stroke-linecap="round" stroke-linejoin="round">
<g id="nc_house_districts">
<path id="house-1" d="M 19.17076891350886 19.58660631732516 L 61.23558841432127 20.012052129177736 L 60.96290395890041 59.20006544038036 L 19.478569978923392 59.011846815578245 Z" fill="#E5E7EB" stroke="#374151" stroke-width="0.5"/>
<path id="house-2" d="M 62.086769194013726 20.32997137780235 L 104.23075157090335 20.960238624771716 L 103.32995523095659 58.52653951275198 L 63.185797057713465 59.055213033347776 Z" fill="#E5E7EB" stroke="#374151" stroke-width="0.5"/>
<path id="house-3" d="M 103.60364401768882 20.460011282529894 L 146.02345172859032 20.78412173975298 L 146.30690914643154 59.687253209160616 L 105.2826752753517 59.95739144665686 Z" fill="#E5E7EB" stroke="#374151" stroke-width="0.5"/>
<path id="house-4" d="M 146.65781238095914 20.905878416864674 L 187.54887463358932 20.3385055184983 L 188.02049962510586 59.846836052753964 L 146.81342735246056 58.38329370286342 Z" fill="#E5E7EB" stroke="#374151" stroke-width="0.5"/>
<path id="house-5" d="M 188.9173332092108 20.117600021556566 L 229.89208464928316 19.386498419116002 L 229.29560257139346 59.01402894331132 L 189.85352460115715 58.13935194480621 Z" fill="#E5E7EB" stroke="#374151" stroke-width="0.5"/>
<path id="house-6" d="M 230.5879513311756 19.973915175032854 L 271.5362118907975 20.43811413393452 L 271.7443289559359 58.694930751330126 L 230.44299103057782 58.0981084089967 Z" fill="#E5E7EB" stroke="#374151" stroke-width="0.5"/>
<path id="house-7" d="M 273.9387047894938 20.55883861191424 L 314.99227252661086 19.388453783317175 L 313.6961437418876 58.312501438216906 L 273.3252653147749 59.1303553044308 Z" fill="#E5E7EB" stroke="#374151" stroke-width="0.5"/>
<path id="house-8" d="M 315.6910315478386 20.300976909225326 L 357.0953164261129 20.480239796783426 L 356.0946230134947 59.00623776505452 L 315.12655348040556 59.50294972372238 Z" fill="#E5E7EB" stroke="#374151" stroke-width="0.5"/>
<path id="house-9" d="M 357.19507895015715 20.14293586796443 L 398.5610060402505 19.190466834137375 L 398.03536304380697 59.13546885335001 L 357.0027341794992 58.08344710543486 Z" fill="#E5E7EB" stroke="#374151" stroke-width="0.5"/>
<path id="house-10" d="M 400.01721491321643 20.3764026693236 L 440.85785578330405 20.589186469193013 L 440.6194901980081 59.060073969897175 L 400.65729245664033 58.11367949575489 Z" fill="#E5E7EB" stroke="#374151" stroke-width="0.5"/>
<path id="house-11" d="M 441.8778066853933 20.12553067269051 L 482.8844855056167 20.983415206555847 L 483.71476471760343 59.78881662670222 L 441.45513675544885 59.523456150808514 Z" fill="#E5E7EB" stroke="#374151" stroke-width="0.5"/>
<path id="house-12" d="M 483.8751766741214 19.510732342945413 L 526.3237598660079 20.990055184805534 L 525.7735627458677 59.602928100358945 L 485.26582307188977 59.47639622628343 Z" fill="#E5E7EB" stroke="#374151" stroke-width="0.5"/>
<path id="house-13" d="M 527.6052437654204 20.22863956691406 L 567.1112934816201 19.21122326909544 L 567.1562474650922 59.153600613210536 L 526.7528197516269 59.14851535453906 Z" fill="#E5E7EB" stroke="#374151" stroke-width="0.5"/>
<path id="house-14" d="M 567.9423030239683 20.33093458370629 L 610.0659622231578 19.209999988341913 L 610.1129340305877 58.789328098129815 L 569.7370718145022 58.77357886229977 Z" fill="#E5E7EB" stroke="#374151" stroke-width="0.5"/>
<path id="house-15" d="M 610.3972545734812 20.455701826084642 L 651.9059808673857 19.057250250405275 L 652.316270955973 59.62199752509604 L 610.5554874705008 59.20611224799846 Z" fill="#E5E7EB" stroke="#374151" stroke-width="0.5"/>
<path id="house-16" d="M 654.1376184465172 20.27966234027175 L 694.5948642825217 20.027032052829586 L 695.088186418518 58.8867855582899 L 653.9474570309181 58.81190177142549 Z" fill="#E5E7EB" stroke="#374151" stroke-width="0.5"/>
<path id="house-17" d="M 20.020111935934693 59.10578908798202 L 61.19156062720634 59.09524762412211 L 61.149716992699474 99.70507040686321 L 19.156617574902217 98.36249300868793 Z" fill="#E5E7EB" stroke="#374151" stroke-width="0.5"/>
<path id="house-18" d="M 63.133031693491795 59.849171808231524 L 102.97477459182528 60.50079630249255 L 103.06050441560465 98.91269730969405 L 61.591598424626895 99.95006790948908 Z" fill="#E5E7EB" stroke="#374151" stroke-width="0.5"/>
<path id="house-19" d="M 103.71363569898908 60.54769757199963 L 145.79652622305747 60.904025231673515 L 145.6629337736827 98.0614653936824 L 103.6185351708149 98.54486473292008 Z" fill="#E5E7EB" stroke="#374151" stroke-width="0.5"/>
<path id="house-20" d="M 146.45995709407276 59.437893890049324 L 187.1490434908137 60.457533512090535 L 187.9952514908704 99.14273420468172 L 146.93969664707276 98.21657184796277 Z" fill="#E5E7EB" stroke="#374151" stroke-width="0.5"/>
<path id="house-21" d="M 188.72029687093652 60.472372484996306 L 230.47857052106005 60.81830358109609 L 229.91156504384742 98.70097919502048 L 188.933372962641 98.4630119570488 Z" fill="#E5E7EB" stroke="#374151" stroke-width="0.5"/>
<path id="house-22" d="M 230.85598460657076 59.39401443903933 L 273.01921249956325 60.146562210659084 L 272.9315037419361 99.47176382149603 L 231.1308702766611 99.03983968122654 Z" fill="#E5E7EB" stroke="#374151" stroke-width="0.5"/>
<path id="house-23" d="M 273.99396208711113 59.86259156465261 L 315.405812794116 59.014570120145244 L 313.59407038749634 98.81913552984064 L 272.3368842020587 99.91836157174065 Z" fill="#E5E7EB" stroke="#374151" stroke-width="0.5"/>
<path id="house-24" d="M 315.9605768115634 59.72017743667502 L 357.4353558249773 60.488133004394086 L 357.13058739271725 99.32113187972995 L 314.6815948408266 99.72426161686623 Z" fill="#E5E7EB" stroke="#374151" stroke-width="0.5"/>
<path id="house-25" d="M 358.4609387768478 60.516038521939485 L 398.68997461830895 60.51024922269812 L 398.7445396839887 98.69449467109996 L 358.60405883211496 98.35423126485529 Z" fill="#E5E7EB" stroke="#374151" stroke-width="0.5"/>
<path id="house-26" d="M 400.8605344693114 59.29777905851169 L 440.94340160739563 59.77058603702122 L 440.75737620219246 99.86140985099976 L 399.3094610102762 98.87052265433856 Z" fill="#E5E7EB" stroke="#374151" stroke-width="0.5"/>
<path id="house-27" d="M 441.88441435473425 59.85724671751677 L 483.28612647877384 59.09814573320351 L 482.79618034382094 99.36313022666845 L 442.77283068303075 99.31531542573495 Z" fill="#E5E7EB" stroke="#374151" stroke-width="0.5"/>
<path id="house-28" d="M 483.95933682862835 60.91880800959295 L 526.0433022221129 59.96763759708015 L 524.8676837654758 98.69437747681532 L 483.76728809297185 98.05154358518278 Z" fill="#E5E7EB" stroke="#374151" stroke-width="0.5"/>
<path id="house-29" d="M 526.9208317342457 59.52153417916797 L 567.9645098790347 60.92603307766136 L 567.8195045600858 98.3040725360541 L 527.3914018197545 99.22847209038869 Z" fill="#E5E7EB" stroke="#374151" stroke-width="0.5"/>
<path id="house-30" d="M 569.2003076365575 60.79323765581219 L 610.3844212664267 60.961922105705476 L 609.3424875842263 98.63768546947591 L 568.9455406704436 99.73479343282153 Z" fill="#E5E7EB" stroke="#374151" stroke-width="0.5"/>
<path id="house-31" d="M 611.3171182965749 59.17972834717766 L 652.6696728427473 60.4823625103533 L 652.9315925086493 99.18885157351086 L 610.2635839119031 99.72082384668377 Z" fill="#E5E7EB" stroke="#374151" stroke-width="0.5"/>
<path id="house-32" d="M 653.4135927211889 60.68924845591897 L 695.4944175610959 59.80492097797965 L 694.7768239742437 99.7901418492766 L 652.3882169311869 98.1822264096352 Z" fill="#E5E7EB" stroke="#374151" stroke-width="0.5"/>
<path id="house-33" d="M 694.872145941123 60.24458958375178 L 737.6878649494481 60.15948295533168 L 736.6906274618349 99.1652146480778 L 696.0601694630203 99.92514649392218 Z" fill="#E5E7EB" stroke="#374151" stroke-width="0.5"/>
<path id="house-34" d="M 19.636772728982983 99.18735353655062 L 60.62035036346032 100.11513821379828 L 61.8467724341353 139.74116221030948 L 19.892539355036543 139.2624647742813 Z" fill="#E5E7EB" stroke="#374151" stroke-width="0.5"/>
<path id="house-35" d="M 62.26728246044895 100.67274569184677 L 102.85206258706866 100.9868672158392 L 103.38782401307063 138.45818107966963 L 62.85000780268191 138.5126339601243 Z" fill="#E5E7EB" stroke="#374151" stroke-width="0.5"/>
<path id="house-36" d="M 103.58949223140336 100.52571643914992 L 146.1076619814386 100.01574491824417 L 144.84697576617987 139.71318538335007 L 103.53652045505618 138.93662849756794 Z" fill="#E5E7EB" stroke="#374151" stroke-width="0.5"/>
<path id="house-37" d="M 146.78688588547777 99.11781834772025 L 187.07530279509734 100.9547672001536 L 187.1836569320538 138.64414323678687 L 146.9465216386833 138.18483564819977 Z" fill="#E5E7EB" stroke="#374151" stroke-width="0.5"/>
<path id="house-38" d="M 189.38317114499506 100.47808005462133 L 230.6516345874086 100.30573269653686 L 230.44233263984313 139.0031291368715 L 189.08207104691758 138.53371843374165 Z" fill="#E5E7EB" stroke="#374151" stroke-width="0.5"/>
<path id="house-39" d="M 230.23210611445734 99.00898248892307 L 272.70368551329904 100.9434204907291 L 272.7909763478925 138.56887317684226 L 231.7565939202613 138.5777806823426 Z" fill="#E5E7EB" stroke="#374151" stroke-width="0.5"/>
<path id="house-40" d="M 273.86809604282513 100.32464579123948 L 314.2078380901999 99.88587726240826 L 314.684551140445 138.7927850527887 L 272.8722381650843 138.95853337198068 Z" fill="#E5E7EB" stroke="#374151" stroke-width="0.5"/>
<path id="house-41" d="M 315.52559758080264 100.94291576273189 L 357.018048893782 99.46361073586708 L 357.14532768390285 138.3196052878225 L 316.11400249986934 138.09780356575823 Z" fill="#E5E7EB" stroke="#374151" stroke-width="0.5"/>
<path id="house-42" d="M 357.2596720234444 99.78178222964581 L 398.38617263065663 99.46990356720397 L 398.124465468011 138.08046084039648 L 358.1759715463343 138.14773122440985 Z" fill="#E5E7EB" stroke="#374151" stroke-width="0.5"/>
<path id="house-43" d="M 399.33002937788456 100.88267583416436 L 441.16397218455563 99.04998005748072 L 441.0473581903268 138.4791034037799 L 400.97698966576934 139.9475868279855 Z" fill="#E5E7EB" stroke="#374151" stroke-width="0.5"/>
<path id="house-44" d="M 442.0274102553376 99.05904450437963 L 482.9388467038799 99.3045590205493 L 483.5043267556874 139.0138295000235 L 442.4140952053467 139.79119610419554 Z" fill="#E5E7EB" stroke="#374151" stroke-width="0.5"/>
<path id="house-45" d="M 484.4352577026372 99.53352090703706 L 525.7758863885431 99.09322017651823 L 524.7728000191727 139.25916258184353 L 484.97510565424045 138.64979128718875 Z" fill="#E5E7EB" stroke="#374151" stroke-width="0.5"/>
<path id="house-46" d="M 525.9745324573712 100.73053542689894 L 567.9625589069036 99.05963595519334 L 568.5271407592877 138.79691331094796 L 526.8635699387585 139.03310548797097 Z" fill="#E5E7EB" stroke="#374151" stroke-width="0.5"/>
<path id="house-47" d="M 567.9139338351083 99.18413461800665 L 609.6845267162321 99.7328445941453 L 610.3520522877653 139.1186652892902 L 567.9752000158733 139.39323311151165 Z" fill="#E5E7EB" stroke="#374151" stroke-width="0.5"/>
<path id="house-48" d="M 610.6910702535006 100.52293592181564 L 651.9186761598853 100.55394585327629 L 651.5603804349445 139.531582146777 L 611.8340212820683 139.2969064102644 Z" fill="#E5E7EB" stroke="#374151" stroke-width="0.5"/>
<path id="house-49" d="M 653.1808360738119 99.3930689256459 L 693.8806169882868 100.55511185226493 L 694.5867834845249 138.74107506327368 L 653.7981097061958 138.46862575259675 Z" fill="#E5E7EB" stroke="#374151" stroke-width="0.5"/>
<path id="house-50" d="M 696.4465127793183 100.339425655559 L 736.5131069358281 99.36284276387897 L 736.9955166256663 139.75566228207998 L 695.0935435623754 139.9820245149018 Z" fill="#E5E7EB" stroke="#374151" stroke-width="0.5"/>
<path id="house-51" d="M 738.325672612606 100.23845330354446 L 779.0169155248974 100.12082828939552 L 779.5236408248152 139.9895240542009 L 738.2531287551295 138.56970883404185 Z" fill="#E5E7EB" stroke="#374151" stroke-width="0.5"/>
<path id="house-52" d="M 19.473369785247748 140.2397501271162 L 61.09283980314047 139.32623048872426 L 61.656477569940364 179.13053871586987 L 19.898194631419003 179.64969949553915 Z" fill="#E5E7EB" stroke="#374151" stroke-width="0.5"/>
<path id="house-53" d="M 61.56946590157302 140.42771942344865 L 102.5388452292343 139.3308533587985 L 104.0502278881329 179.05639967407936 L 62.29557140361734 178.0984590079236 Z" fill="#E5E7EB" stroke="#374151" stroke-width="0.5"/>
<path id="house-54" d="M 104.83492358071265 140.51595556682145 L 146.23843083301082 139.84326180893277 L 145.78859826171308 178.93342580186973 L 103.72393798045525 178.96134619386157 Z" fill="#E5E7EB" stroke="#374151" stroke-width="0.5"/>
<path id="house-55" d="M 146.70822299297004 140.52052098232073 L 188.23189047442455 140.68013852675318 L 186.9910091561008 179.24150497183038 L 146.44458236831898 178.85404528692825 Z" fill="#E5E7EB" stroke="#374151" stroke-width="0.5"/>
<path id="house-56" d="M 188.85573331815974 140.887965894508 L 230.76123216792868 140.14308898226358 L 229.64829177852636 179.8705668989432 L 188.94988021745573 179.73777191975148 Z" fill="#E5E7EB" stroke="#374151" stroke-width="0.5"/>
<path id="house-57" d="M 231.83760203316217 140.48998206567248 L 271.8776131842394 139.31528397209345 L 271.96296562508917 179.99357307691264 L 231.14174031040517 179.68856755354514 Z" fill="#E5E7EB" stroke="#374151" stroke-width="0.5"/>
<path id="house-58" d="M 273.80252700775344 140.77620733479313 L 315.3703173647398 140.30807010502775 L 313.63645390518747 179.14779454457516 L 272.5344135373673 178.62735911747987 Z" fill="#E5E7EB" stroke="#374151" stroke-width="0.5"/>
<path id="house-59" d="M 316.23151386064484 140.2035615712177 L 357.47207975956695 139.83760170070315 L 357.545425120223 179.30322818424847 L 315.45733406725566 178.4639274914399 Z" fill="#E5E7EB" stroke="#374151" stroke-width="0.5"/>
<path id="house-60" d="M 358.2710796379806 140.62139947322152 L 398.8112297276707 140.88187369027963 L 398.50828333778367 179.08151012240305 L 357.83283012937017 178.5615552165694 Z" fill="#E5E7EB" stroke="#374151" stroke-width="0.5"/>
<path id="house-61" d="M 399.84613434657786 140.5878774827022 L 440.225335647646 140.48016940633445 L 440.9386924401552 178.47899123611793 L 399.28054434533277 179.7179774690952 Z" fill="#E5E7EB" stroke="#374151" stroke-width="0.5"/>
<path id="house-62" d="M 442.2818062434931 139.3805223525925 L 482.48948617212943 139.02286630086854 L 483.8767129899206 179.8475364090612 L 442.3523977638474 179.34765572907872 Z" fill="#E5E7EB" stroke="#374151" stroke-width="0.5"/>
<path id="house-63" d="M 485.22528004235164 140.26583431432454 L 526.0134707914955 139.72324045276736 L 524.8089329129332 178.8454840505659 L 485.21200840980026 178.23635973061786 Z" fill="#E5E7EB" stroke="#374151" stroke-width="0.5"/>
<path id="house-64" d="M 525.9126118549049 140.83388827324578 L 567.194675694944 139.53743375215748 L 568.1155899090724 178.43283389384075 L 526.6751544085585 179.61733948575272 Z" fill="#E5E7EB" stroke="#374151" stroke-width="0.5"/>
<path id="house-65" d="M 569.2683930073373 140.17342182106077 L 609.6780808468459 140.37898073916867 L 610.5004666008847 178.17867877291752 L 569.0953458457133 179.99810706400015 Z" fill="#E5E7EB" stroke="#374151" stroke-width="0.5"/>
<path id="house-66" d="M 611.3712140433648 139.7305278806422 L 651.8442969499267 139.09642697935135 L 653.0458154485952 179.07598814262275 L 610.361545378 178.49189581652863 Z" fill="#E5E7EB" stroke="#374151" stroke-width="0.5"/>
<path id="house-67" d="M 653.4076957524022 139.71207378464038 L 694.1810735224257 139.35010413070975 L 694.3099825381072 179.1520578555924 L 653.4127182505466 179.6140400988778 Z" fill="#E5E7EB" stroke="#374151" stroke-width="0.5"/>
<path id="house-68" d="M 695.6694425769989 139.11073477394407 L 736.4287434273459 140.69906270878192 L 737.771715617594 179.11722580460963 L 694.9068942668919 179.64694343620317 Z" fill="#E5E7EB" stroke="#374151" stroke-width="0.5"/>
<path id="house-69" d="M 738.0001473017342 139.60952830383283 L 779.5282776522705 140.97929011356146 L 779.7030939825094 178.52924737995605 L 737.7472565994769 178.6339891986538 Z" fill="#E5E7EB" stroke="#374151" stroke-width="0.5"/>
<path id="house-70" d="M 19.648175358561524 179.02740430861053 L 61.21557229434813 179.17891345383202 L 61.5310865310065 219.5415919909602 L 19.318208525310194 219.62481287313955 Z" fill="#E5E7EB" stroke="#374151" stroke-width="0.5"/>
<path id="house-71" d="M 62.89842456582236 179.95994267209414 L 103.06050705815014 179.8013258749471 L 104.20574686458889 218.2602776649402 L 62.58751463620862 218.96722744812539 Z" fill="#E5E7EB" stroke="#374151" stroke-width="0.5"/>
<path id="house-72" d="M 105.36450654011001 179.73909016006027 L 146.58422351706926 180.2649984452989 L 145.10427906296226 219.83468471769595 L 104.98816518834553 219.73944805740203 Z" fill="#E5E7EB" stroke="#374151" stroke-width="0.5"/>
<path id="house-73" d="M 147.61681909492683 179.94463048791508 L 187.21180245375518 179.1521325733252 L 188.22897739199024 219.2316024651097 L 146.2995124029361 218.04908771340286 Z" fill="#E5E7EB" stroke="#374151" stroke-width="0.5"/>
<path id="house-74" d="M 187.9533623679768 180.01144255650752 L 231.07510190590443 179.0665053004122 L 229.2206384586176 218.43194608558318 L 189.4092550768738 218.1288339846524 Z" fill="#E5E7EB" stroke="#374151" stroke-width="0.5"/>
<path id="house-75" d="M 230.59607546410663 179.03913931122403 L 272.0306798738048 179.44007072232557 L 272.39355402809895 218.49931776526697 L 230.67827527958738 219.02396129479305 Z" fill="#E5E7EB" stroke="#374151" stroke-width="0.5"/>
<path id="house-76" d="M 274.0589428960764 180.37952898386595 L 313.85271601197024 180.5830217266812 L 313.939567268929 218.1705944373436 L 273.40144276768825 219.1416435383759 Z" fill="#E5E7EB" stroke="#374151" stroke-width="0.5"/>
<path id="house-77" d="M 315.68412457261195 179.20128491109844 L 356.41158945334195 179.31174026338056 L 357.295484578509 219.67947583212776 L 314.78765533546755 219.20989377942823 Z" fill="#E5E7EB" stroke="#374151" stroke-width="0.5"/>
<path id="house-78" d="M 358.05755057039823 180.75898834337136 L 399.16849251787096 180.31895276568284 L 399.3469540040632 218.2129578888188 L 358.29607961258534 218.42800496505953 Z" fill="#E5E7EB" stroke="#374151" stroke-width="0.5"/>
<path id="house-79" d="M 400.18382272412623 179.23126905861574 L 440.5929406170297 180.27583469604403 L 440.78214916010523 218.51452175271166 L 400.7581078777797 218.98729583486264 Z" fill="#E5E7EB" stroke="#374151" stroke-width="0.5"/>
<path id="house-80" d="M 442.004795202716 180.1135500864918 L 483.1692657050111 180.21403224130063 L 484.3050697501632 219.02704237982002 L 443.00440790455235 219.8815461618288 Z" fill="#E5E7EB" stroke="#374151" stroke-width="0.5"/>
<path id="house-81" d="M 484.3247263330786 179.9517771260011 L 526.0652450072995 179.91918128676693 L 525.893844610437 219.45667131504095 L 484.11487258890116 219.01424179828055 Z" fill="#E5E7EB" stroke="#374151" stroke-width="0.5"/>
<path id="house-82" d="M 525.8428104940843 180.12336137199338 L 568.2095330741096 180.87714143705182 L 567.4211569636284 219.82585987246028 L 527.4307894623078 218.7273622354303 Z" fill="#E5E7EB" stroke="#374151" stroke-width="0.5"/>
<path id="house-83" d="M 568.0129661374704 180.44260666739336 L 610.375455824357 179.9817205414595 L 609.3837294035718 218.7979620037934 L 568.0482829897853 219.30354161990843 Z" fill="#E5E7EB" stroke="#374151" stroke-width="0.5"/>
<path id="house-84" d="M 611.8026683790024 180.22173950285395 L 652.4519284080035 179.5205579567056 L 652.8701885627152 219.4126713748706 L 611.9542957270932 218.13067729726464 Z" fill="#E5E7EB" stroke="#374151" stroke-width="0.5"/>
<path id="house-85" d="M 652.5591862770563 179.7285230914806 L 695.0364117321525 180.7330306145561 L 694.0745668464797 218.65953464418604 L 652.8217202405049 219.0477337659859 Z" fill="#E5E7EB" stroke="#374151" stroke-width="0.5"/>
<path id="house-86" d="M 695.1981603637616 179.56254854459624 L 737.6238041891007 179.77777499684254 L 737.2810034169391 219.3050365493862 L 696.1298941545514 219.33648509308608 Z" fill="#E5E7EB" stroke="#374151" stroke-width="0.5"/>
<path id="house-87" d="M 738.7272093415811 180.3575367921326 L 778.9895151061263 179.50583900867994 L 779.4401086627125 218.65606490809202 L 738.705766811195 219.421755806361 Z" fill="#E5E7EB" stroke="#374151" stroke-width="0.5"/>
<path id="house-88" d="M 20.38967298234883 219.48224335317698 L 60.760837635857904 219.5278616499699 L 61.68894703228177 259.66263250725757 L 19.426444852699404 259.8627510184098 Z" fill="#E5E7EB" stroke="#374151" stroke-width="0.5"/>
<path id="house-89" d="M 61.86325816035336 220.94093617051 L 103.68432410176186 219.78918600431928 L 103.93789538838334 259.5565021308955 L 62.12354817383104 258.06984394470487 Z" fill="#E5E7EB" stroke="#374151" stroke-width="0.5"/>
<path id="house-90" d="M 105.07024187608441 219.68082512897558 L 144.7653391866809 220.12216897695583 L 145.3956748330847 258.91086236237726 L 104.52231639310196 259.1096280695952 Z" fill="#E5E7EB" stroke="#374151" stroke-width="0.5"/>
<path id="house-91" d="M 146.33928656258738 219.446331472315 L 188.67135447637145 219.53115048909385 L 187.02506087682826 259.61092558188943 L 147.10534145137885 258.23335896040317 Z" fill="#E5E7EB" stroke="#374151" stroke-width="0.5"/>
<path id="house-92" d="M 188.54002003326755 219.86040189923173 L 229.37752578266574 220.13736483238353 L 230.6098062577298 259.60781595441557 L 188.02680697723622 258.15504927905357 Z" fill="#E5E7EB" stroke="#374151" stroke-width="0.5"/>
<path id="house-93" d="M 230.9703536542391 220.11556170965756 L 271.45279032160965 219.11594070432878 L 272.10956733684066 259.78083409228907 L 230.94161455519776 259.5441959612936 Z" fill="#E5E7EB" stroke="#374151" stroke-width="0.5"/>
<path id="house-94" d="M 272.72773431516373 219.44621749111073 L 314.9725953653317 220.02609683495862 L 313.83745764726393 259.03515652172126 L 273.0239399208444 259.572388430714 Z" fill="#E5E7EB" stroke="#374151" stroke-width="0.5"/>
<path id="house-95" d="M 315.1304835642402 219.10666621984373 L 357.3670139323342 220.6402564265032 L 357.7586673133532 258.4484605985676 L 315.1785000403338 259.89422023732357 Z" fill="#E5E7EB" stroke="#374151" stroke-width="0.5"/>
<path id="house-96" d="M 357.1642718300889 219.32612822456434 L 398.3846528921074 219.39266256499138 L 399.2233993112125 259.30359793456785 L 357.23285161169383 259.1420569557711 Z" fill="#E5E7EB" stroke="#374151" stroke-width="0.5"/>
<path id="house-97" d="M 399.9643431472483 219.70281114864713 L 440.5741309204979 220.1741652215928 L 442.1565713538501 259.2244131541026 L 400.71790401709274 258.44508993592626 Z" fill="#E5E7EB" stroke="#374151" stroke-width="0.5"/>
<path id="house-98" d="M 441.8548346181591 219.89113023324717 L 484.06684256504053 220.52820098227852 L 482.9806312071494 258.74250074496314 L 442.9605265440339 258.9971296770207 Z" fill="#E5E7EB" stroke="#374151" stroke-width="0.5"/>
<path id="house-99" d="M 485.00332343867194 220.35328867013013 L 526.159894585837 220.56912752498337 L 525.8110255153589 259.40117428636205 L 484.36394916569213 259.26542935433844 Z" fill="#E5E7EB" stroke="#374151" stroke-width="0.5"/>
<path id="house-100" d="M 527.0420324941333 220.94856093134177 L 568.2049143556131 219.5063092874748 L 567.6348984098439 259.7958636231973 L 526.3634280098755 258.01471918549095 Z" fill="#E5E7EB" stroke="#374151" stroke-width="0.5"/>
<path id="house-101" d="M 569.5438446439662 219.1331695944395 L 610.9104354192185 219.27579684936345 L 609.658454964107 259.2509607722654 L 569.6716561867124 258.21075543652444 Z" fill="#E5E7EB" stroke="#374151" stroke-width="0.5"/>
<path id="house-102" d="M 611.273532913177 219.9124979926156 L 653.0925138802247 219.96044491144127 L 652.7368725517072 258.06773847517326 L 611.0675832112244 258.34759792566234 Z" fill="#E5E7EB" stroke="#374151" stroke-width="0.5"/>
<path id="house-103" d="M 653.3796899703517 219.35719049364403 L 693.593288078968 220.4068943536587 L 695.0390407896564 258.0287885762249 L 653.0790248425488 259.8289720330155 Z" fill="#E5E7EB" stroke="#374151" stroke-width="0.5"/>
<path id="house-104" d="M 695.7830662839281 219.6085761141775 L 737.7466463136966 220.21307710802813 L 736.068253923392 258.2994016634579 L 694.9850070710057 259.9804699245526 Z" fill="#E5E7EB" stroke="#374151" stroke-width="0.5"/>
<path id="house-105" d="M 738.2482332545419 220.51593188228043 L 779.4070600961834 219.71536688274355 L 778.6016532504331 259.5485195672598 L 737.8389240490944 259.2822961562929 Z" fill="#E5E7EB" stroke="#374151" stroke-width="0.5"/>
<path id="house-106" d="M 20.653637156223624 259.737619915869 L 61.76154252048908 259.9502255644278 L 61.25526875890118 298.6456996642376 L 19.970007340153856 298.6633459277506 Z" fill="#E5E7EB" stroke="#374151" stroke-width="0.5"/>
<path id="house-107" d="M 61.78161334766046 260.6260418326731 L 103.3809351891702 260.32769800541655 L 104.37084395174512 298.75334292561416 L 62.01463496852796 298.9656857239164 Z" fill="#E5E7EB" stroke="#374151" stroke-width="0.5"/>
<path id="house-108" d="M 103.67010453205863 260.47859188377225 L 145.40260116219727 259.30601901221496 L 145.08472346446456 298.1599602762758 L 105.00194621374648 298.18708366606575 Z" fill="#E5E7EB" stroke="#374151" stroke-width="0.5"/>
<path id="house-109" d="M 146.70849227963197 259.6556553256382 L 188.36341420089198 260.9031789570966 L 187.70525559804994 298.249639634107 L 146.53087061992545 299.985092535141 Z" fill="#E5E7EB" stroke="#374151" stroke-width="0.5"/>
<path id="house-110" d="M 189.64764444015827 260.82975791882535 L 230.1438184586626 260.14323258056186 L 230.7517227070699 299.0689842211965 L 188.72215376459377 299.0497909524853 Z" fill="#E5E7EB" stroke="#374151" stroke-width="0.5"/>
<path id="house-111" d="M 231.2634401979322 259.763058770957 L 272.2300858101305 259.3050334941672 L 272.90655611636697 298.7779640087399 L 230.60553416294914 299.60113395766814 Z" fill="#E5E7EB" stroke="#374151" stroke-width="0.5"/>
<path id="house-112" d="M 272.9732747000186 259.1056045448506 L 315.52295077899396 260.88533592877917 L 314.7360073338727 298.6373637242893 L 273.4953092705009 299.4860624029304 Z" fill="#E5E7EB" stroke="#374151" stroke-width="0.5"/>
<path id="house-113" d="M 314.6935803896452 260.62491928033563 L 357.554668827848 260.8962170763238 L 355.82240856272807 298.19133876216426 L 316.15228455254834 299.04424388866016 Z" fill="#E5E7EB" stroke="#374151" stroke-width="0.5"/>
<path id="house-114" d="M 358.07688483715333 260.00631180701805 L 398.5068813323983 259.0732180564118 L 398.34720025007624 298.36231614212113 L 357.561171494535 298.35636339311594 Z" fill="#E5E7EB" stroke="#374151" stroke-width="0.5"/>
<path id="house-115" d="M 400.1410717627365 259.7015800237385 L 440.98523169070074 259.78407439238623 L 442.183121812766 299.6484394796501 L 399.06837394949525 298.345296375405 Z" fill="#E5E7EB" stroke="#374151" stroke-width="0.5"/>
<path id="house-116" d="M 441.40509718826644 260.4222601776359 L 483.7603161684111 260.57395144466796 L 483.000498356907 298.42682521881045 L 441.7774378702467 299.8976463110496 Z" fill="#E5E7EB" stroke="#374151" stroke-width="0.5"/>
<path id="house-117" d="M 484.21012996547785 259.7605748043757 L 525.6625707510879 259.2756322001976 L 526.0189553758407 299.09618568618214 L 484.0586825723043 298.3121127832115 Z" fill="#E5E7EB" stroke="#374151" stroke-width="0.5"/>
<path id="house-118" d="M 527.4952598047025 260.7286305583538 L 568.3379570907969 260.6562544556537 L 567.2642590015699 298.02769944773104 L 527.4593671575251 298.1637256015386 Z" fill="#E5E7EB" stroke="#374151" stroke-width="0.5"/>
<path id="house-119" d="M 569.1873959457528 259.34044446919313 L 610.8091182970504 259.33500000105 L 609.7422731915032 299.15671799905164 L 569.3803245304337 299.32903087228516 Z" fill="#E5E7EB" stroke="#374151" stroke-width="0.5"/>
<path id="house-120" d="M 611.7585138205955 260.69250264798904 L 652.1818122232665 259.28384746650545 L 653.2588050552273 299.964324989646 L 611.3916176465352 298.6751539845863 Z" fill="#E5E7EB" stroke="#374151" stroke-width="0.5"/>
</g>
</svg>