<?xml version="1.0"?>
<svg xmlns="http://www.w3.org/2000/svg" version="1.2" baseProfile="tiny" width="800" height="320" viewBox="0 0 800 320" stroke-linecap="round" stroke-linejoin="round">
<g id="nc_senate_districts">
<path id="senate-1" d="M 20.93869998600504 20.573126040846525 L 81.36584747829848 19.00195021675195 L 81.60719048645342 74.10192994609764 L 20.82800836115326 75.10255346616096 Z" fill="#E5E7EB" stroke="#374151" stroke-width="0.5"/>
<path id="senate-2" d="M 83.6713672028206 19.92232926228543 L 146.46830031879836 19.325454169175824 L 146.48727531814419 74.46357607466 L 83.70504851930778 74.59804054378385 Z" fill="#E5E7EB" stroke="#374151" stroke-width="0.5"/>
<path id="senate-3" d="M 146.09820401557528 19.270454966632137 L 209.54302211118713 19.64760725757247 L 209.93457254839154 75.220425897694 L 147.58949667979394 74.86772180089642 Z" fill="#E5E7EB" stroke="#374151" stroke-width="0.5"/>
<path id="senate-4" d="M 210.66039450237184 20.272573256362183 L 271.4958154484548 20.126325404288504 L 272.795247455231 74.95918782223386 L 210.04711443919612 74.34325977338773 Z" fill="#E5E7EB" stroke="#374151" stroke-width="0.5"/>
<path id="senate-5" d="M 274.18273987495405 20.820679946201793 L 336.1531926157107 19.70060063796363 L 336.449608488499 74.21012321812748 L 273.74087968496855 75.8894124916668 Z" fill="#E5E7EB" stroke="#374151" stroke-width="0.5"/>
<path id="senate-6" d="M 337.4465266026495 19.93063602324824 L 398.64162320543835 19.41407443606238 L 399.76373065158646 74.88896504513275 L 336.64907874947767 75.93524217209851 Z" fill="#E5E7EB" stroke="#374151" stroke-width="0.5"/>
<path id="senate-7" d="M 400.768045284111 19.353263907885882 L 462.6907388494472 20.507826627728722 L 463.31241891464356 74.53019416291367 L 400.5786708487375 74.08867943527403 Z" fill="#E5E7EB" stroke="#374151" stroke-width="0.5"/>
<path id="senate-8" d="M 463.29701329712 20.157120201841277 L 526.5700039337984 20.49890752916709 L 526.6498535539148 75.50413859124318 L 463.81020995012 75.38856096211278 Z" fill="#E5E7EB" stroke="#374151" stroke-width="0.5"/>
<path id="senate-9" d="M 527.4388955371205 20.658882763208283 L 588.3940367744144 19.970537567523607 L 588.992232130215 74.28534225350445 L 527.1527291688643 74.80693816949726 Z" fill="#E5E7EB" stroke="#374151" stroke-width="0.5"/>
<path id="senate-10" d="M 589.4864849813592 20.206058684200134 L 651.5890898350018 19.59680413335738 L 652.8655102235359 75.7326272332455 L 590.9151344122218 75.20263211526037 Z" fill="#E5E7EB" stroke="#374151" stroke-width="0.5"/>
<path id="senate-11" d="M 653.6501415014179 19.243053479580485 L 715.5953560881063 20.638265543099582 L 714.8274510788171 75.6415243365159 L 652.8035002499718 74.67369454357319 Z" fill="#E5E7EB" stroke="#374151" stroke-width="0.5"/>
<path id="senate-12" d="M 716.0329706516403 20.828304189131597 L 779.2626811018899 19.582833291032244 L 778.5395785999332 75.24005116634126 L 716.8124608878671 74.25636486406455 Z" fill="#E5E7EB" stroke="#374151" stroke-width="0.5"/>
<path id="senate-13" d="M 20.572321529705718 75.60512295821393 L 81.69575643508942 76.87183846212834 L 82.72514195106675 131.1013538402318 L 20.995914401158664 130.04226528752767 Z" fill="#E5E7EB" stroke="#374151" stroke-width="0.5"/>
<path id="senate-14" d="M 83.16306946192232 76.95106305822402 L 145.42561307302262 76.01469185340251 L 144.7829255096743 130.96982024902417 L 83.62069586978863 130.05886503997257 Z" fill="#E5E7EB" stroke="#374151" stroke-width="0.5"/>
<path id="senate-15" d="M 146.73429151491206 76.89759480747729 L 208.09061227911528 75.40654892982631 L 208.83053692232335 130.64288402725984 L 147.16267304321397 131.01958523663995 Z" fill="#E5E7EB" stroke="#374151" stroke-width="0.5"/>
<path id="senate-16" d="M 209.91218239929955 75.61142747849445 L 272.49989772322476 75.3381445262149 L 272.56750475728023 130.53792260812764 L 209.07860894796713 131.820360816858 Z" fill="#E5E7EB" stroke="#374151" stroke-width="0.5"/>
<path id="senate-17" d="M 273.39635331792385 76.2623792797264 L 335.00825683484504 76.83041867651609 L 336.28864996982884 130.61696229426346 L 272.87549045061303 131.15792623131372 Z" fill="#E5E7EB" stroke="#374151" stroke-width="0.5"/>
<path id="senate-18" d="M 336.2033792143185 76.29811011876158 L 399.3539675025539 75.02466321765169 L 399.2987356263704 130.26609481043087 L 337.02722783828966 130.1058839574849 Z" fill="#E5E7EB" stroke="#374151" stroke-width="0.5"/>
<path id="senate-19" d="M 400.9752465183845 76.01114736516419 L 463.28831717079 76.51605671027106 L 462.5656034898681 130.5923304747719 L 400.5933771409103 131.73304471183877 Z" fill="#E5E7EB" stroke="#374151" stroke-width="0.5"/>
<path id="senate-20" d="M 463.787810088489 76.73460119403707 L 524.8272624270181 75.97094314434332 L 524.781276480341 130.6114149658777 L 462.7336606468669 130.73721555167182 Z" fill="#E5E7EB" stroke="#374151" stroke-width="0.5"/>
<path id="senate-21" d="M 527.219986519189 76.42965559516055 L 589.0117211208488 76.95239324736386 L 588.3720243796356 131.58964374387645 L 526.2801485853729 131.9412268377118 Z" fill="#E5E7EB" stroke="#374151" stroke-width="0.5"/>
<path id="senate-22" d="M 590.2950360954252 75.84203033753931 L 651.446954032307 75.89330889946531 L 652.9652001872424 130.6156673249518 L 590.1467008710914 131.28784071735095 Z" fill="#E5E7EB" stroke="#374151" stroke-width="0.5"/>
<path id="senate-23" d="M 654.0765181170052 76.25164028607414 L 714.9924545300345 76.35978964673643 L 716.1951558429497 131.11139318711517 L 653.0031200476859 130.12301631670246 Z" fill="#E5E7EB" stroke="#374151" stroke-width="0.5"/>
<path id="senate-24" d="M 717.28944712911 75.68498935517121 L 779.2786758501938 76.35015042949769 L 779.5488340344534 131.0940963985446 L 717.5125678337349 131.3551687721456 Z" fill="#E5E7EB" stroke="#374151" stroke-width="0.5"/>
<path id="senate-25" d="M 19.15304354493772 131.62616533910162 L 83.18206596785232 131.72238037078844 L 82.88015241409119 187.42925672184154 L 20.512915777656538 186.71781424872356 Z" fill="#E5E7EB" stroke="#374151" stroke-width="0.5"/>
<path id="senate-26" d="M 83.3410376161907 131.5925084508858 L 145.74146602804447 131.13927169478688 L 144.91753825827274 186.7613330639303 L 83.45194867587476 186.5800363164281 Z" fill="#E5E7EB" stroke="#374151" stroke-width="0.5"/>
<path id="senate-27" d="M 147.4343730974903 132.26957632134048 L 208.58747864884185 131.29928512870345 L 208.4323128109474 187.01436270848473 L 147.21408465060767 187.97521489400467 Z" fill="#E5E7EB" stroke="#374151" stroke-width="0.5"/>
<path id="senate-28" d="M 210.42908109368776 131.34157523655244 L 272.71645343462336 132.2987123099695 L 272.61545682745066 187.1674753644602 L 209.8775280128521 186.96399250472828 Z" fill="#E5E7EB" stroke="#374151" stroke-width="0.5"/>
<path id="senate-29" d="M 274.1975887371172 132.90341982836605 L 336.2826331840698 131.45175981955217 L 334.69695129949577 187.43377817953683 L 274.2044851046422 187.3830716396323 Z" fill="#E5E7EB" stroke="#374151" stroke-width="0.5"/>
<path id="senate-30" d="M 335.9362645509765 132.2704391936708 L 398.5773384067928 131.53547875577755 L 398.67325362121306 187.04982437638344 L 337.5412776269124 186.12623988998328 Z" fill="#E5E7EB" stroke="#374151" stroke-width="0.5"/>
<path id="senate-31" d="M 400.2775882150294 131.85308787093163 L 463.3110760533765 131.87416887278908 L 462.33592448376345 186.57550374241794 L 400.8498225558739 187.14059119352285 Z" fill="#E5E7EB" stroke="#374151" stroke-width="0.5"/>
<path id="senate-32" d="M 462.3882543589747 132.59963473139894 L 526.1951762913225 131.64499935313395 L 525.7115151279118 186.68183505577682 L 462.698651389737 186.74903634785986 Z" fill="#E5E7EB" stroke="#374151" stroke-width="0.5"/>
<path id="senate-33" d="M 527.5967114073131 132.33247556990457 L 589.093270501549 132.9799389504495 L 589.8027101905388 186.432220262022 L 525.8467467888702 186.59033356216332 Z" fill="#E5E7EB" stroke="#374151" stroke-width="0.5"/>
<path id="senate-34" d="M 589.6965329700433 131.02728630768942 L 653.3189418257934 132.42733700191073 L 652.0175701271692 186.73623365080675 L 590.4700266621081 187.77768492849438 Z" fill="#E5E7EB" stroke="#374151" stroke-width="0.5"/>
<path id="senate-35" d="M 652.6162876644318 131.1390847772748 L 716.0563078362619 132.94040974257695 L 716.6605497313499 186.23185112585486 L 653.0081141089136 187.98734395725148 Z" fill="#E5E7EB" stroke="#374151" stroke-width="0.5"/>
<path id="senate-36" d="M 716.1349847898623 131.45680427542717 L 779.0011688486525 132.69530639297346 L 779.68426455492 186.35573151976376 L 716.7369835654097 186.76912850791325 Z" fill="#E5E7EB" stroke="#374151" stroke-width="0.5"/>
<path id="senate-37" d="M 20.85462737650577 188.11327934396496 L 83.07630278295083 188.83045762327004 L 82.1110767537549 243.47490720919794 L 20.442355729507334 243.77558324398916 Z" fill="#E5E7EB" stroke="#374151" stroke-width="0.5"/>
<path id="senate-38" d="M 82.38846247100577 187.08136890654734 L 145.7166545890973 187.9282777261606 L 145.0004242702628 243.0819811430671 L 83.17344549357824 242.7454823838674 Z" fill="#E5E7EB" stroke="#374151" stroke-width="0.5"/>
<path id="senate-39" d="M 146.76492533377052 188.23268659244263 L 209.9820787729108 188.44285627531596 L 208.52331972858255 242.05391382864582 L 146.55778595871104 243.0839912874747 Z" fill="#E5E7EB" stroke="#374151" stroke-width="0.5"/>
<path id="senate-40" d="M 209.19039198808133 188.2016093836315 L 273.24073548153103 188.02872155446138 L 271.7257167352603 242.83891126044026 L 210.4874455698168 243.08513411867958 Z" fill="#E5E7EB" stroke="#374151" stroke-width="0.5"/>
<path id="senate-41" d="M 273.0174052554173 188.60523288625254 L 334.6886757042421 187.0042500040811 L 335.66871814128524 243.9488736332734 L 273.9893381596398 242.67609607804118 Z" fill="#E5E7EB" stroke="#374151" stroke-width="0.5"/>
<path id="senate-42" d="M 337.2269291705087 188.01768090156804 L 398.02182061154906 187.43823998473871 L 398.3557648876252 243.07936564062092 L 337.312017232086 242.6131925795318 Z" fill="#E5E7EB" stroke="#374151" stroke-width="0.5"/>
<path id="senate-43" d="M 399.91868875309626 188.67988489281888 L 463.3170558706061 187.1278131554748 L 461.99838711127836 242.72906448708653 L 400.7276632388442 242.13284529881182 Z" fill="#E5E7EB" stroke="#374151" stroke-width="0.5"/>
<path id="senate-44" d="M 463.08133599994926 187.01220472081454 L 526.1696468079302 188.23467192044907 L 525.672895320978 243.6461569782729 L 462.9622114518269 242.9041521413649 Z" fill="#E5E7EB" stroke="#374151" stroke-width="0.5"/>
<path id="senate-45" d="M 525.9711665361258 188.6607462184689 L 589.4899106741635 188.62044421331922 L 589.7331122570085 243.95704410247086 L 527.4007464994626 243.5549990837321 Z" fill="#E5E7EB" stroke="#374151" stroke-width="0.5"/>
<path id="senate-46" d="M 590.8960220593024 188.05535857629383 L 652.9430756727177 187.92704468936685 L 652.1861451071571 242.05941584343765 L 589.2099817845248 243.35014121389844 Z" fill="#E5E7EB" stroke="#374151" stroke-width="0.5"/>
<path id="senate-47" d="M 653.6846631617493 187.7074240098221 L 716.4541839932946 188.1155584310591 L 715.7562784069823 242.71711572862313 L 654.2927724121325 242.4204520181142 Z" fill="#E5E7EB" stroke="#374151" stroke-width="0.5"/>
<path id="senate-48" d="M 717.0992849200649 187.76876661259996 L 779.9771221057338 187.35517947562923 L 779.7505264733554 243.78984049753805 L 716.3417944890001 243.51050602101878 Z" fill="#E5E7EB" stroke="#374151" stroke-width="0.5"/>
<path id="senate-49" d="M 20.356447197604815 244.84819586896876 L 81.97563753310484 244.36840964998913 L 81.89637137427115 298.9433046873016 L 20.84038397226777 299.2288632526931 Z" fill="#E5E7EB" stroke="#374151" stroke-width="0.5"/>
<path id="senate-50" d="M 82.55556005239609 244.24816253685643 L 145.24748026261355 244.3460496606454 L 146.0734152762964 298.12469794571047 L 83.5735429475843 299.2261130937555 Z" fill="#E5E7EB" stroke="#374151" stroke-width="0.5"/>
</g>
</svg>