<?xml version="1.0"?>
<svg xmlns="http://www.w3.org/2000/svg" version="1.2" baseProfile="tiny" width="800" height="364" viewBox="0 0 800 364" stroke-linecap="round" stroke-linejoin="round">
<g id="va_house_districts">
<path id="house-1" d="M 19.069153910454904 19.26814097349635 L 68.73227543904929 20.607395149333186 L 69.20624069446436 65.03376589130816 L 19.315682220013283 66.04849437654686 Z" fill="#E5E7EB" stroke="#374151" stroke-width="0.5"/>
<path id="house-2" d="M 71.11144259181755 20.431810362297462 L 120.6474854917727 19.476162943528085 L 120.19216854730671 65.99758389246983 L 70.86489912341443 65.92205432568049 Z" fill="#E5E7EB" stroke="#374151" stroke-width="0.5"/>
<path id="house-3" d="M 121.03281188418428 20.56014794041703 L 171.9380892274546 19.41908241251716 L 170.4750585420766 65.46197371388021 L 120.81686304228188 65.61794986223012 Z" fill="#E5E7EB" stroke="#374151" stroke-width="0.5"/>
<path id="house-4" d="M 172.36579256662296 19.026651389189887 L 222.01223556340665 19.512327416572308 L 221.36038073902517 64.91742011513638 L 172.94000123465165 64.63345219783452 Z" fill="#E5E7EB" stroke="#374151" stroke-width="0.5"/>
<path id="house-5" d="M 221.72007715393465 20.942012744749263 L 272.59070890027755 20.60143293868754 L 271.60637370152824 66.12525310347128 L 223.50870533001626 64.42275801628574 Z" fill="#E5E7EB" stroke="#374151" stroke-width="0.5"/>
<path id="house-6" d="M 273.6597737454406 19.009757929938274 L 322.5206157959353 20.497844692455267 L 323.90302349492026 64.33407351040206 L 273.15367435103605 65.21255604537097 Z" fill="#E5E7EB" stroke="#374151" stroke-width="0.5"/>
<path id="house-7" d="M 323.20755029208937 20.90994324562395 L 372.82047144318625 19.8905798403145 L 373.193140696609 66.20876892564729 L 324.87325819815874 66.17026030563895 Z" fill="#E5E7EB" stroke="#374151" stroke-width="0.5"/>
<path id="house-8" d="M 375.2792352393779 19.305148147393762 L 424.6420954803166 20.26554086941136 L 425.30579931972466 66.1166890357957 L 375.1253269531169 65.42150672136157 Z" fill="#E5E7EB" stroke="#374151" stroke-width="0.5"/>
<path id="house-9" d="M 426.29712108324395 19.576984438951815 L 475.9499440892263 19.10371345006308 L 475.4471803437225 64.42799406553355 L 424.4101793693358 64.63075322851097 Z" fill="#E5E7EB" stroke="#374151" stroke-width="0.5"/>
<path id="house-10" d="M 476.31265558113637 19.28041569124545 L 524.9531472567077 19.11664033833173 L 524.7420439259558 64.74230833306297 L 476.818630184151 65.9250189268161 Z" fill="#E5E7EB" stroke="#374151" stroke-width="0.5"/>
<path id="house-11" d="M 526.8944094830671 19.19394515420514 L 576.8201300064678 19.236349516419235 L 575.6546644852648 64.70407213756036 L 527.3593152600215 65.43021656725688 Z" fill="#E5E7EB" stroke="#374151" stroke-width="0.5"/>
<path id="house-12" d="M 576.6912099685825 20.681439020237367 L 627.7483802188545 19.201031462554667 L 626.429784045972 66.12110098322886 L 577.5022491493985 65.62019691608923 Z" fill="#E5E7EB" stroke="#374151" stroke-width="0.5"/>
<path id="house-13" d="M 627.0352182945255 19.464352985137904 L 678.4861174837894 19.375030491081798 L 677.4263573629196 65.00181737250108 L 628.0325612414096 64.86480406662085 Z" fill="#E5E7EB" stroke="#374151" stroke-width="0.5"/>
<path id="house-14" d="M 19.07339639152634 67.2565193935408 L 69.51658064555711 66.92791505624488 L 70.55438684860383 111.36195049743027 L 20.49861220583918 111.7271660395357 Z" fill="#E5E7EB" stroke="#374151" stroke-width="0.5"/>
<path id="house-15" d="M 70.26851893577083 65.74895798411616 L 120.92109443508674 65.34443391323059 L 119.76520808162387 110.59017022626296 L 70.61610030319306 112.10239311742035 Z" fill="#E5E7EB" stroke="#374151" stroke-width="0.5"/>
<path id="house-16" d="M 120.93987686667279 65.94751630459126 L 171.3330888037615 66.99437301505358 L 171.7296435064172 111.13857685389021 L 120.34191296457404 110.82037770276315 Z" fill="#E5E7EB" stroke="#374151" stroke-width="0.5"/>
<path id="house-17" d="M 172.1441418050945 65.61017279927302 L 220.69954476731272 65.9665870786317 L 221.6918238353343 111.54934306234986 L 172.98625326171862 111.51884773271307 Z" fill="#E5E7EB" stroke="#374151" stroke-width="0.5"/>
<path id="house-18" d="M 222.5555633617705 65.66254420113836 L 272.5680616398328 66.78361764906963 L 271.7850118705161 111.51380852193226 L 223.35393339524194 110.83297960710368 Z" fill="#E5E7EB" stroke="#374151" stroke-width="0.5"/>
<path id="house-19" d="M 273.59825914010503 67.18241325551485 L 323.72209538450863 67.23036537369615 L 322.87116582228015 111.39981249156163 L 273.48825524347086 110.91132067790093 Z" fill="#E5E7EB" stroke="#374151" stroke-width="0.5"/>
<path id="house-20" d="M 323.2675587184892 65.50241008800958 L 374.3485669134756 67.18845935329804 L 374.59899198845426 112.1313364282343 L 323.0585132162092 111.85334528362073 Z" fill="#E5E7EB" stroke="#374151" stroke-width="0.5"/>
<path id="house-21" d="M 374.4992529048091 66.57271742496313 L 424.7820157525928 65.70921057294224 L 423.71541525892223 112.46614267762598 L 374.7257599687744 110.94430720737064 Z" fill="#E5E7EB" stroke="#374151" stroke-width="0.5"/>
<path id="house-22" d="M 424.901703408219 66.65237173053121 L 475.72578006497076 65.86586422713212 L 475.9556540073484 111.55995177027025 L 425.7227341032991 111.70949519011826 Z" fill="#E5E7EB" stroke="#374151" stroke-width="0.5"/>
<path id="house-23" d="M 476.82344050064296 67.07510857287653 L 526.5596880100667 65.80999896550463 L 526.536674746036 111.82676415283444 L 476.27690981003747 112.21130942440809 Z" fill="#E5E7EB" stroke="#374151" stroke-width="0.5"/>
<path id="house-24" d="M 527.4879184423019 65.99434803853694 L 576.4647000961124 66.73066235040251 L 577.3087411321026 112.21583812953142 L 525.7377669386718 110.92003419674047 Z" fill="#E5E7EB" stroke="#374151" stroke-width="0.5"/>
<path id="house-25" d="M 577.330812856093 66.11646623506913 L 627.6073917972551 66.66740123320594 L 627.7181605459501 110.58917321080378 L 577.1937296510371 111.07520683174613 Z" fill="#E5E7EB" stroke="#374151" stroke-width="0.5"/>
<path id="house-26" d="M 627.924863659061 66.3150420860779 L 677.0218614372505 66.2371295483128 L 677.846743924917 112.07669885733868 L 627.8468988498478 111.40212295502084 Z" fill="#E5E7EB" stroke="#374151" stroke-width="0.5"/>
<path id="house-27" d="M 677.9173092335938 67.26523594476579 L 727.5032842439058 66.70211337526422 L 727.5796165656042 111.51573323332674 L 679.3691266564326 112.38632474657926 Z" fill="#E5E7EB" stroke="#374151" stroke-width="0.5"/>
<path id="house-28" d="M 19.945256539949746 112.33979751866481 L 68.69304722961681 112.28387722242937 L 69.76665437154736 158.62097762253066 L 19.735460329024434 157.1951509225207 Z" fill="#E5E7EB" stroke="#374151" stroke-width="0.5"/>
<path id="house-29" d="M 70.29143402470342 111.58194387933106 L 119.8382760019393 112.08592585167416 L 119.99399654124764 158.21398912347706 L 70.06969367464733 157.19016299719382 Z" fill="#E5E7EB" stroke="#374151" stroke-width="0.5"/>
<path id="house-30" d="M 121.9891283811174 111.77837610966013 L 171.69710303909457 113.36813838343146 L 171.33697500068905 157.9093424075423 L 122.13543131991916 158.21149838364488 Z" fill="#E5E7EB" stroke="#374151" stroke-width="0.5"/>
<path id="house-31" d="M 171.41984164556874 113.0188477693224 L 222.56236700064994 113.35323448899585 L 220.80022852340934 158.35518384125493 L 172.46680905428164 158.1506820551896 Z" fill="#E5E7EB" stroke="#374151" stroke-width="0.5"/>
<path id="house-32" d="M 221.7724327431281 112.5298345007781 L 271.9280249034624 113.02214877641113 L 272.9105042383472 158.30712950289325 L 222.92509042853027 158.64429824348215 Z" fill="#E5E7EB" stroke="#374151" stroke-width="0.5"/>
<path id="house-33" d="M 273.9952976468628 113.40188217050019 L 323.20546356284393 112.64455082820152 L 322.81024824515976 157.2725254470588 L 274.31922459789445 157.48722513261396 Z" fill="#E5E7EB" stroke="#374151" stroke-width="0.5"/>
<path id="house-34" d="M 323.0366095697716 112.09304195211483 L 373.28151934176145 112.3272067470111 L 372.7524835612744 157.99240891814577 L 324.4946978436725 157.35933831811846 Z" fill="#E5E7EB" stroke="#374151" stroke-width="0.5"/>
<path id="house-35" d="M 373.86265744501935 112.6427598004016 L 423.6697395002034 113.16535868005971 L 423.51465207858223 158.80069466943002 L 375.0923583546865 156.9127867226475 Z" fill="#E5E7EB" stroke="#374151" stroke-width="0.5"/>
<path id="house-36" d="M 425.0976887103527 113.21304675329822 L 474.7553357662123 113.1571926148849 L 475.4012449021072 158.5353458880353 L 426.2145814697051 157.92101082675282 Z" fill="#E5E7EB" stroke="#374151" stroke-width="0.5"/>
<path id="house-37" d="M 476.1327073351599 112.28513679663912 L 526.0261895808421 111.68321874704117 L 526.2069871575121 158.33587006943705 L 476.095344055778 157.4918222643148 Z" fill="#E5E7EB" stroke="#374151" stroke-width="0.5"/>
<path id="house-38" d="M 526.8100156727992 111.87726236211815 L 575.5692844396854 112.44555747092653 L 576.6168709201136 157.89707065147076 L 527.140260525465 157.6912572478256 Z" fill="#E5E7EB" stroke="#374151" stroke-width="0.5"/>
<path id="house-39" d="M 576.8429398357026 112.24504247526303 L 626.37436800535 112.95230816085471 L 627.0972204388602 157.8186595425919 L 577.5191556718185 156.89323392429142 Z" fill="#E5E7EB" stroke="#374151" stroke-width="0.5"/>
<path id="house-40" d="M 628.4583435449638 112.78601939401622 L 676.864870998241 111.99801989763374 L 677.5378873151899 158.57744508611995 L 628.0015347483746 158.41629632043754 Z" fill="#E5E7EB" stroke="#374151" stroke-width="0.5"/>
<path id="house-41" d="M 678.5032698729796 112.75554570524127 L 728.268137187204 113.46612816236208 L 728.9627865953694 156.92458102252965 L 678.2192550387338 157.98053180489438 Z" fill="#E5E7EB" stroke="#374151" stroke-width="0.5"/>
<path id="house-42" d="M 728.7897041518574 112.0619863718674 L 778.1518297417201 111.8692186328504 L 778.1066551737755 157.78490950570796 L 729.3278785585421 157.3699502936045 Z" fill="#E5E7EB" stroke="#374151" stroke-width="0.5"/>
<path id="house-43" d="M 20.13578303571877 159.1790359232827 L 69.4964570971742 158.24241487047806 L 70.33423786680027 203.67243765393474 L 19.586008278397127 204.5534496357792 Z" fill="#E5E7EB" stroke="#374151" stroke-width="0.5"/>
<path id="house-44" d="M 70.52696042902664 157.99792325444503 L 120.23361453831849 159.30119480266663 L 119.77144581948238 204.13538796541414 L 70.31752937937244 203.8069860361686 Z" fill="#E5E7EB" stroke="#374151" stroke-width="0.5"/>
<path id="house-45" d="M 121.05637495228183 158.887796224322 L 171.29133450441734 159.34921772704473 L 170.62302096563903 204.76438439632227 L 121.39085420664514 204.08163725782578 Z" fill="#E5E7EB" stroke="#374151" stroke-width="0.5"/>
<path id="house-46" d="M 171.18838999365283 158.60997002503333 L 222.17988595795492 159.6157033367228 L 222.2714194286813 204.1934540152378 L 171.9488666526929 203.9048084986242 Z" fill="#E5E7EB" stroke="#374151" stroke-width="0.5"/>
<path id="house-47" d="M 221.8325473595873 158.69290657819485 L 273.160873394003 158.61514320310533 L 272.96051899903426 203.52676052742368 L 221.69759095947546 203.1453720290781 Z" fill="#E5E7EB" stroke="#374151" stroke-width="0.5"/>
<path id="house-48" d="M 272.90118017826677 158.17656781429469 L 323.87622655965197 159.11057834288505 L 322.2502010915127 204.36714301063222 L 274.11356346752495 205.0899097467458 Z" fill="#E5E7EB" stroke="#374151" stroke-width="0.5"/>
<path id="house-49" d="M 324.54541608618337 158.062761274705 L 374.32237904435243 158.20931663692733 L 373.70351842508626 204.29732168050836 L 323.38110784416085 203.98020984351714 Z" fill="#E5E7EB" stroke="#374151" stroke-width="0.5"/>
<path id="house-50" d="M 375.37015346865593 158.72371091569173 L 423.88658887848743 158.87372312043374 L 424.36651172328266 203.81365886063298 L 375.08130909465837 203.73516272405553 Z" fill="#E5E7EB" stroke="#374151" stroke-width="0.5"/>
<path id="house-51" d="M 426.21640320073953 159.28756590567914 L 474.6321566318905 159.0254793552243 L 475.3360835149729 203.17681801687516 L 425.2212646494782 204.93339487346958 Z" fill="#E5E7EB" stroke="#374151" stroke-width="0.5"/>
<path id="house-52" d="M 475.1870313914515 159.23167921979513 L 525.615543704595 158.53102713043765 L 526.541588644916 204.7997116361067 L 476.1319185896285 204.1046444261995 Z" fill="#E5E7EB" stroke="#374151" stroke-width="0.5"/>
<path id="house-53" d="M 526.2404666666044 159.51222076317754 L 576.9909671878999 159.2638000052722 L 575.956120137986 204.77835856753106 L 526.2270058430759 203.426356550122 Z" fill="#E5E7EB" stroke="#374151" stroke-width="0.5"/>
<path id="house-54" d="M 578.3031287092318 158.04992663081126 L 627.4253392992489 159.60852265898285 L 626.4023865217968 203.90905618191584 L 577.6945107774732 203.58662372644727 Z" fill="#E5E7EB" stroke="#374151" stroke-width="0.5"/>
<path id="house-55" d="M 628.5921972666222 157.94413606728662 L 677.9626603272905 158.73939671090872 L 677.7140548208581 203.5320148620213 L 627.700456126098 203.96682436224785 Z" fill="#E5E7EB" stroke="#374151" stroke-width="0.5"/>
<path id="house-56" d="M 677.8157219425415 159.80221539127274 L 727.388143362702 159.12065817893722 L 728.1829040342328 204.29953590238665 L 679.0612711802727 203.2855502347968 Z" fill="#E5E7EB" stroke="#374151" stroke-width="0.5"/>
<path id="house-57" d="M 730.1912736020981 157.9254693221632 L 779.7654469055861 159.46838089668438 L 779.2868198262937 203.18013971247512 L 730.3201748612082 203.52597953822882 Z" fill="#E5E7EB" stroke="#374151" stroke-width="0.5"/>
<path id="house-58" d="M 19.71414150688519 206.09600850336852 L 70.63844824555349 205.94014648494587 L 69.03968617365348 250.01086506122434 L 20.271346754906695 250.23846707774987 Z" fill="#E5E7EB" stroke="#374151" stroke-width="0.5"/>
<path id="house-59" d="M 71.36970087426556 204.9691565603301 L 120.63474021480681 205.13172578337446 L 120.51677909942478 251.35475730413927 L 71.23720033802995 250.67256414529032 Z" fill="#E5E7EB" stroke="#374151" stroke-width="0.5"/>
<path id="house-60" d="M 122.171741264647 204.26657456614578 L 170.68919032504382 204.69249519227304 L 170.6485377079177 251.39558834773453 L 121.37744963421949 249.72099190063565 Z" fill="#E5E7EB" stroke="#374151" stroke-width="0.5"/>
<path id="house-61" d="M 172.68385421416056 204.30495099676077 L 221.71150015407045 205.16885789806253 L 220.9462067632259 250.55226446193114 L 171.69671796749958 250.10180553446654 Z" fill="#E5E7EB" stroke="#374151" stroke-width="0.5"/>
<path id="house-62" d="M 223.2156551964087 205.31321532912395 L 272.73811822161286 205.9486720657802 L 273.2602724951145 250.3088734714344 L 221.6790869704332 250.75762598828717 Z" fill="#E5E7EB" stroke="#374151" stroke-width="0.5"/>
<path id="house-63" d="M 272.48505069149894 204.7461145496033 L 322.5423729672935 204.29230127169146 L 322.7988458127228 251.28392730982827 L 273.85079875433496 250.1513379357684 Z" fill="#E5E7EB" stroke="#374151" stroke-width="0.5"/>
<path id="house-64" d="M 323.4565347775939 204.6355320541497 L 373.82961970232486 204.45321746689476 L 374.12102906774544 250.0171396007819 L 324.99465991387757 249.70139847914936 Z" fill="#E5E7EB" stroke="#374151" stroke-width="0.5"/>
<path id="house-65" d="M 374.7039518395104 204.19625447143486 L 424.08585720471405 204.15520994385795 L 424.974418171793 249.9282171203434 L 375.3193330551594 249.8285183261529 Z" fill="#E5E7EB" stroke="#374151" stroke-width="0.5"/>
<path id="house-66" d="M 424.44215828429066 204.48380550613075 L 474.1701248172303 204.28984867580095 L 475.6010798922728 250.28495968801403 L 425.95857448014084 250.14079803426776 Z" fill="#E5E7EB" stroke="#374151" stroke-width="0.5"/>
<path id="house-67" d="M 476.07949312133974 204.87305484233897 L 525.2549379530919 206.06828812645284 L 524.7419560842914 250.03658880055494 L 475.32159696272953 250.4721078247274 Z" fill="#E5E7EB" stroke="#374151" stroke-width="0.5"/>
<path id="house-68" d="M 526.3262983891209 204.1590535911495 L 576.510861894212 205.46182168052826 L 576.6482350635107 250.1399097954781 L 526.4427738736821 249.93896516085272 Z" fill="#E5E7EB" stroke="#374151" stroke-width="0.5"/>
<path id="house-69" d="M 576.9700405083775 205.96640521511145 L 626.0959598313699 205.44616283204675 L 626.9019615295473 250.28937711472463 L 578.0284743560379 250.96631438790723 Z" fill="#E5E7EB" stroke="#374151" stroke-width="0.5"/>
<path id="house-70" d="M 628.8442852350387 204.80077094407326 L 676.8623903503933 205.56547409694812 L 678.6102340244628 251.21522367546805 L 628.8963100750027 251.23267312006374 Z" fill="#E5E7EB" stroke="#374151" stroke-width="0.5"/>
<path id="house-71" d="M 678.06359405933 205.10378312320356 L 728.617520631896 205.6370526952763 L 729.2400618237575 249.43203524376977 L 677.8064655217072 249.6944675585664 Z" fill="#E5E7EB" stroke="#374151" stroke-width="0.5"/>
<path id="house-72" d="M 729.8996370592141 205.53664699310346 L 778.0431424375804 205.8121949838936 L 779.3211136993023 250.2103855498811 L 729.6969227128122 250.96088884226882 Z" fill="#E5E7EB" stroke="#374151" stroke-width="0.5"/>
<path id="house-73" d="M 19.97243096568959 250.53867425185888 L 68.66992261697477 251.20364100552175 L 69.17903919281255 296.1319834045642 L 19.58673483130554 296.80985650425106 Z" fill="#E5E7EB" stroke="#374151" stroke-width="0.5"/>
<path id="house-74" d="M 69.95927180070672 252.13130338133004 L 120.28623076792181 252.31476764085113 L 119.38142511623762 296.8700832896257 L 70.9953641690632 296.24191591900825 Z" fill="#E5E7EB" stroke="#374151" stroke-width="0.5"/>
<path id="house-75" d="M 120.98925126292261 251.51434109216493 L 170.2459942758553 251.444870698259 L 170.68032903457035 295.7637429843263 L 121.74674778711335 295.84929563261136 Z" fill="#E5E7EB" stroke="#374151" stroke-width="0.5"/>
<path id="house-76" d="M 171.3215087768827 252.07769436287006 L 221.35456974515807 252.33275254450893 L 221.27388180857486 296.8795653813051 L 172.9917576670973 295.80844374519893 Z" fill="#E5E7EB" stroke="#374151" stroke-width="0.5"/>
<path id="house-77" d="M 222.65252643028754 251.3290278584959 L 272.500161630558 251.72410848664924 L 272.11312142824994 296.4573512140758 L 222.69320903190294 296.3157906515913 Z" fill="#E5E7EB" stroke="#374151" stroke-width="0.5"/>
<path id="house-78" d="M 272.7785564183584 251.4995774855025 L 323.1136339301029 250.78079557974092 L 322.0331758629815 297.3808680569602 L 272.80993110105226 296.7970211063354 Z" fill="#E5E7EB" stroke="#374151" stroke-width="0.5"/>
<path id="house-79" d="M 324.8601957201483 250.6056345231681 L 374.55434148372467 251.25099931086214 L 372.970103838219 297.2332677801143 L 324.68529610620584 297.15042377985617 Z" fill="#E5E7EB" stroke="#374151" stroke-width="0.5"/>
<path id="house-80" d="M 375.61595827766513 251.6476599404405 L 425.0467868039288 251.3799455408502 L 423.3610837370476 295.8864760044688 L 374.75065405102845 297.15365185093106 Z" fill="#E5E7EB" stroke="#374151" stroke-width="0.5"/>
<path id="house-81" d="M 425.32695451673203 252.2820346407668 L 475.30358581691365 251.01717587944822 L 474.5115133942661 296.7865366794012 L 424.7383878984976 297.6453584986786 Z" fill="#E5E7EB" stroke="#374151" stroke-width="0.5"/>
<path id="house-82" d="M 475.43552159079627 250.81416363754738 L 525.7232850012592 250.82861456344216 L 524.9716134645811 296.63931961364244 L 475.3580895631829 297.6430909885392 Z" fill="#E5E7EB" stroke="#374151" stroke-width="0.5"/>
<path id="house-83" d="M 525.9989157036996 251.0715821840143 L 576.8928733064513 251.98739532918492 L 577.0581675043401 297.650859916904 L 525.8677091275159 295.9381342834819 Z" fill="#E5E7EB" stroke="#374151" stroke-width="0.5"/>
<path id="house-84" d="M 577.8603909274084 250.71157976178145 L 626.0426413735629 251.54962862434235 L 627.3234646650253 295.72791757189407 L 578.3219124485249 297.3561214458004 Z" fill="#E5E7EB" stroke="#374151" stroke-width="0.5"/>
<path id="house-85" d="M 628.868260088891 250.98996790340232 L 678.4918551259399 251.5620711098908 L 677.9572450000687 296.8040886344987 L 628.1893379003275 297.676781019343 Z" fill="#E5E7EB" stroke="#374151" stroke-width="0.5"/>
<path id="house-86" d="M 678.6774276617008 252.15324032492956 L 729.0501038687787 251.12658458350194 L 728.8140510514078 296.6083698313172 L 679.5763451812817 296.6611512721665 Z" fill="#E5E7EB" stroke="#374151" stroke-width="0.5"/>
<path id="house-87" d="M 728.957883618805 250.89283702625988 L 778.8886005926246 251.66098635165318 L 779.3118849507654 295.9628189982133 L 728.9566331629233 296.0082378120806 Z" fill="#E5E7EB" stroke="#374151" stroke-width="0.5"/>
<path id="house-88" d="M 20.993243356507676 298.46021972939667 L 69.6510129052401 297.7497102206259 L 70.2781674581228 342.6204659991423 L 20.192342066846958 343.580536631615 Z" fill="#E5E7EB" stroke="#374151" stroke-width="0.5"/>
<path id="house-89" d="M 70.34211079712297 298.310498653103 L 121.1262716843644 298.12872124635925 L 119.73164003330014 343.50544816932705 L 69.90511240760254 343.32632695878647 Z" fill="#E5E7EB" stroke="#374151" stroke-width="0.5"/>
<path id="house-90" d="M 120.75475307556393 296.77603674823365 L 170.53726517299725 296.821917709529 L 171.61379087676846 342.2655305589245 L 121.73865573283932 343.64087659128217 Z" fill="#E5E7EB" stroke="#374151" stroke-width="0.5"/>
<path id="house-91" d="M 172.45598376804395 297.2031398865644 L 221.0600756120356 297.4831308986444 L 220.84183429276203 343.6155471157122 L 172.29197728446965 343.8557800111584 Z" fill="#E5E7EB" stroke="#374151" stroke-width="0.5"/>
<path id="house-92" d="M 222.46696587774312 297.46886953072425 L 271.4681879104838 297.6571308292428 L 271.66212215395916 342.60123351059144 L 223.36700187058534 342.1342214387834 Z" fill="#E5E7EB" stroke="#374151" stroke-width="0.5"/>
<path id="house-93" d="M 273.71606965158094 297.74285234529367 L 323.137320193252 298.23197847435694 L 323.2394632822503 343.3642065399145 L 273.6172699720712 343.8739094483685 Z" fill="#E5E7EB" stroke="#374151" stroke-width="0.5"/>
<path id="house-94" d="M 323.0822911868342 298.06740944657383 L 372.95292405578437 297.13854412507584 L 373.1889917802626 342.1172436434589 L 323.2595397055953 343.92306061845557 Z" fill="#E5E7EB" stroke="#374151" stroke-width="0.5"/>
<path id="house-95" d="M 374.1065131667908 297.04467256538595 L 424.1816527432843 297.2612043456967 L 423.6400085419126 343.19094824156673 L 375.35326363471745 343.2679331133589 Z" fill="#E5E7EB" stroke="#374151" stroke-width="0.5"/>
<path id="house-96" d="M 425.5658469775236 297.32757517578955 L 474.66535342336783 297.32683796013936 L 475.77939271228934 342.0153283293955 L 425.6001905402619 343.3474090245202 Z" fill="#E5E7EB" stroke="#374151" stroke-width="0.5"/>
<path id="house-97" d="M 475.6046445995871 298.70928372072484 L 525.1672033339994 297.11341380520867 L 524.9984877148262 343.7783572625431 L 476.4630998248416 342.3162566280111 Z" fill="#E5E7EB" stroke="#374151" stroke-width="0.5"/>
<path id="house-98" d="M 526.9454295292878 297.22377067115275 L 577.1689375320074 297.2046499277882 L 575.4038091176543 343.3769186809654 L 527.0427417045122 343.85693190777266 Z" fill="#E5E7EB" stroke="#374151" stroke-width="0.5"/>
<path id="house-99" d="M 576.7517036864845 297.16135643981767 L 627.9851589078793 297.69023899129826 L 626.4633216203508 342.85161976017054 L 577.3967264179661 343.6997578708014 Z" fill="#E5E7EB" stroke="#374151" stroke-width="0.5"/>
<path id="house-100" d="M 628.1792475650922 298.0838495026278 L 677.4142806685711 296.89086325849803 L 677.6880179552642 343.4395583089301 L 628.950684729297 343.90473430067163 Z" fill="#E5E7EB" stroke="#374151" stroke-width="0.5"/>
</g>
</svg>