<?xml version="1.0"?>
<svg xmlns="http://www.w3.org/2000/svg" version="1.2" baseProfile="tiny" width="800" height="364" viewBox="0 0 800 364" stroke-linecap="round" stroke-linejoin="round">
<g id="va_senate_districts">
<path id="senate-1" d="M 19.44760518074863 20.622011189447225 L 94.36688204866628 19.688906365327178 L 95.26207753206862 99.15015457069211 L 19.450359712437493 99.55624900542215 Z" fill="#E5E7EB" stroke="#374151" stroke-width="0.5"/>
<path id="senate-2" d="M 96.72018638506927 19.454289109658298 L 171.58580641164355 20.91499114573354 L 171.28915729643947 100.32152962054074 L 96.47465865397456 100.31609481347455 Z" fill="#E5E7EB" stroke="#374151" stroke-width="0.5"/>
<path id="senate-3" d="M 172.19426382744132 19.17124203337588 L 246.6605665327364 19.22561058171729 L 247.52353752724179 100.75979858509871 L 171.24012976605013 100.17765698698553 Z" fill="#E5E7EB" stroke="#374151" stroke-width="0.5"/>
<path id="senate-4" d="M 248.87805020099884 19.948014288697767 L 322.4108297207174 19.908562475369674 L 323.18905731377504 100.75402547137992 L 248.16308448876634 99.04539714900493 Z" fill="#E5E7EB" stroke="#374151" stroke-width="0.5"/>
<path id="senate-5" d="M 324.3233762313186 19.757664870763755 L 398.8190850329445 19.734298785978957 L 399.7981857834409 99.51549577170563 L 324.84696800608094 99.86939448384041 Z" fill="#E5E7EB" stroke="#374151" stroke-width="0.5"/>
<path id="senate-6" d="M 399.9366047277719 20.375261940652784 L 474.22839352005985 20.978702143260772 L 474.4800517233663 100.6404121087878 L 400.42866023847256 100.04943081872212 Z" fill="#E5E7EB" stroke="#374151" stroke-width="0.5"/>
<path id="senate-7" d="M 475.3573576770806 19.035409208089405 L 551.6839015472203 20.894916088839324 L 550.7063919300475 99.23265617073199 L 475.2533980382281 100.28750386218607 Z" fill="#E5E7EB" stroke="#374151" stroke-width="0.5"/>
<path id="senate-8" d="M 551.5391263380948 19.8526076198785 L 626.0361264168749 19.28808171803435 L 626.3421149361326 99.09159255463227 L 552.0755159052558 100.48822122479586 Z" fill="#E5E7EB" stroke="#374151" stroke-width="0.5"/>
<path id="senate-9" d="M 628.3700901498507 20.021653551508603 L 702.0229137385771 20.820872881658058 L 702.2146055554215 99.89184916043463 L 628.8000499151824 100.59013447145789 Z" fill="#E5E7EB" stroke="#374151" stroke-width="0.5"/>
<path id="senate-10" d="M 703.9336844332406 20.85551484072725 L 778.3766421472791 20.878434223838376 L 778.7655603007616 99.37604537763174 L 703.279529439373 99.47525839432117 Z" fill="#E5E7EB" stroke="#374151" stroke-width="0.5"/>
<path id="senate-11" d="M 19.556891285213673 100.96678018582399 L 95.98842996587159 100.00431097085917 L 95.73772433436585 181.30277621013263 L 20.05133580997985 180.99222883518905 Z" fill="#E5E7EB" stroke="#374151" stroke-width="0.5"/>
<path id="senate-12" d="M 95.6173464568209 100.81361087423308 L 170.70835697421785 100.12748030095203 L 171.51834715217092 180.21788162916926 L 96.99075368737908 181.18176327875327 Z" fill="#E5E7EB" stroke="#374151" stroke-width="0.5"/>
<path id="senate-13" d="M 171.8687911095393 101.91486622152529 L 247.20577335401458 101.06600711424201 L 247.42013803859027 180.81132158117728 L 172.08383043915424 180.96833648399326 Z" fill="#E5E7EB" stroke="#374151" stroke-width="0.5"/>
<path id="senate-14" d="M 247.98781599031733 100.14038064000964 L 323.30587715714483 101.44516016372059 L 322.7576650373189 180.76424019953578 L 248.52668398829638 181.0390255807666 Z" fill="#E5E7EB" stroke="#374151" stroke-width="0.5"/>
<path id="senate-15" d="M 324.56257987737166 100.58053623189176 L 398.6021158242365 100.36203674323805 L 398.0900176547024 180.3276584261409 L 324.9625255700707 181.77519516832146 Z" fill="#E5E7EB" stroke="#374151" stroke-width="0.5"/>
<path id="senate-16" d="M 400.8251046999962 100.64245852138467 L 474.6752469370229 100.44487148210429 L 475.0717730295732 181.72247515399113 L 400.77271311706005 180.96960550784667 Z" fill="#E5E7EB" stroke="#374151" stroke-width="0.5"/>
<path id="senate-17" d="M 476.86141215331287 100.3078467149499 L 550.3054911924972 100.64111455011098 L 550.9791164475968 180.19041710264077 L 476.75651443549356 180.64545981034803 Z" fill="#E5E7EB" stroke="#374151" stroke-width="0.5"/>
<path id="senate-18" d="M 552.7429207389479 101.83229909004484 L 627.7886988682615 100.82425413279994 L 627.3351705442898 180.1077751653939 L 552.6129871395942 180.02871078259122 Z" fill="#E5E7EB" stroke="#374151" stroke-width="0.5"/>
<path id="senate-19" d="M 628.1364174752264 101.48350696193364 L 702.6090036345647 100.39504164690372 L 702.7738127973248 181.32505940648602 L 627.261274557469 180.14118232854887 Z" fill="#E5E7EB" stroke="#374151" stroke-width="0.5"/>
<path id="senate-20" d="M 703.5530959271453 100.21412427694982 L 779.7582799761323 100.65055171505821 L 778.2930809480963 180.13549099077167 L 704.142124093041 180.67127295447744 Z" fill="#E5E7EB" stroke="#374151" stroke-width="0.5"/>
<path id="senate-21" d="M 20.57894183488675 181.6469473365938 L 94.74715060690872 181.39847785087792 L 94.26803119380607 262.06477465575534 L 20.262447367960313 261.6704281531781 Z" fill="#E5E7EB" stroke="#374151" stroke-width="0.5"/>
<path id="senate-22" d="M 95.12055682685393 181.57065631794683 L 171.86335460180783 181.58784125439368 L 170.8345260167768 262.1605884333909 L 95.52453988556213 262.645385031769 Z" fill="#E5E7EB" stroke="#374151" stroke-width="0.5"/>
<path id="senate-23" d="M 171.49826276759418 181.35497560843896 L 247.56673117925823 181.57711211986248 L 246.40518205104007 262.8333658135099 L 171.32785652625134 261.74197330851194 Z" fill="#E5E7EB" stroke="#374151" stroke-width="0.5"/>
<path id="senate-24" d="M 248.23420832581715 182.0075369514122 L 322.5562682992302 182.417450773218 L 322.5216414188966 261.41623443637747 L 248.40824121587153 261.17243590120125 Z" fill="#E5E7EB" stroke="#374151" stroke-width="0.5"/>
<path id="senate-25" d="M 323.636432397316 181.16282470869078 L 399.6175910333876 181.54131331907374 L 399.14267160746266 261.2774195564298 L 324.096576271221 262.0952561236333 Z" fill="#E5E7EB" stroke="#374151" stroke-width="0.5"/>
<path id="senate-26" d="M 399.438465409397 181.82424399040772 L 475.60882010725084 182.75288993511597 L 475.2194401488156 261.5346816109682 L 400.2351773441652 261.6559463828902 Z" fill="#E5E7EB" stroke="#374151" stroke-width="0.5"/>
<path id="senate-27" d="M 476.3089350260818 181.59386055962668 L 551.5924570861877 182.37034801458478 L 550.9198725382316 261.7348288342737 L 475.00086693062894 261.7117233323346 Z" fill="#E5E7EB" stroke="#374151" stroke-width="0.5"/>
<path id="senate-28" d="M 552.75966923891 181.0521792737146 L 627.4202333263652 182.23851565818785 L 626.1240375383567 261.79750107922547 L 551.5292714036037 262.948813644096 Z" fill="#E5E7EB" stroke="#374151" stroke-width="0.5"/>
<path id="senate-29" d="M 627.2754551410319 181.30496191719504 L 703.7648892157486 181.49995183298992 L 702.7783264496605 262.0163151903868 L 627.0383679618822 262.44383412430915 Z" fill="#E5E7EB" stroke="#374151" stroke-width="0.5"/>
<path id="senate-30" d="M 704.3472805175311 181.65701967537842 L 779.0233958909097 182.75437050164612 L 778.9266648487439 261.3495508978871 L 703.4796241291574 262.8967916695997 Z" fill="#E5E7EB" stroke="#374151" stroke-width="0.5"/>
<path id="senate-31" d="M 20.610399838791015 262.55495803999764 L 94.24279179259156 262.308436989209 L 95.44607699051268 342.8294572721069 L 20.69561244010071 343.14815238288617 Z" fill="#E5E7EB" stroke="#374151" stroke-width="0.5"/>
<path id="senate-32" d="M 95.27004180237377 263.4200313143878 L 170.09754147677214 263.5099581414605 L 170.9064909752849 342.4309018872672 L 95.94513016552824 343.59532845386394 Z" fill="#E5E7EB" stroke="#374151" stroke-width="0.5"/>
<path id="senate-33" d="M 171.57785057765028 263.0333535685207 L 247.89043098342583 263.8679536829165 L 246.09665157156866 342.47991940208703 L 171.4657719234696 342.0615906725348 Z" fill="#E5E7EB" stroke="#374151" stroke-width="0.5"/>
<path id="senate-34" d="M 248.24597063942826 262.5360698364834 L 323.6399107073045 262.163228394062 L 323.36040053812684 342.7539946681628 L 248.7035002901078 342.2373994932784 Z" fill="#E5E7EB" stroke="#374151" stroke-width="0.5"/>
<path id="senate-35" d="M 323.2165825067488 263.19308796285253 L 399.68695052422976 263.04386443903644 L 398.9787571869943 342.5755123360456 L 324.9636384991066 342.4388574463037 Z" fill="#E5E7EB" stroke="#374151" stroke-width="0.5"/>
<path id="senate-36" d="M 399.08784598884114 263.99995179187863 L 475.29171975105254 263.0267541052525 L 475.7364885737149 342.2973335936213 L 400.26925572216265 342.36696449900427 Z" fill="#E5E7EB" stroke="#374151" stroke-width="0.5"/>
<path id="senate-37" d="M 476.4522395631537 263.8266907919134 L 550.5989585189144 262.8405322571541 L 550.8865700571589 343.9625303464475 L 476.8468795774164 343.3767408499688 Z" fill="#E5E7EB" stroke="#374151" stroke-width="0.5"/>
<path id="senate-38" d="M 552.432939271636 262.0226070934125 L 626.8629047535277 262.5665779449735 L 626.4042370517566 343.7352923500788 L 551.4121203062829 343.1244960773669 Z" fill="#E5E7EB" stroke="#374151" stroke-width="0.5"/>
<path id="senate-39" d="M 627.4247144031443 262.47688998278244 L 703.3902639696739 263.430230196504 L 703.0870455631582 342.8173814608396 L 627.84855402927 343.05050170650173 Z" fill="#E5E7EB" stroke="#374151" stroke-width="0.5"/>
<path id="senate-40" d="M 703.0562720129678 263.20178105736903 L 778.6853460756582 263.80427602734017 L 778.6971883554606 343.72638330162425 L 703.3942086023252 342.04084346788795 Z" fill="#E5E7EB" stroke="#374151" stroke-width="0.5"/>
</g>
</svg>